<?xml version="1.0" standalone="no"?>
<!DOCTYPE svg PUBLIC "-//W3C//DTD SVG 1.1//EN" "http://www.w3.org/Graphics/SVG/1.1/DTD/svg11.dtd" >
<svg xmlns="http://www.w3.org/2000/svg" xmlns:xlink="http://www.w3.org/1999/xlink" version="1.1">
<metadata>
This is a custom SVG webfont generated by Typotheque.
</metadata>
<defs>
<font id="typotheque_webfonts_service" horiz-adv-x="0" >
<font-face units-per-em="1000" ascent="780" descent="-220" />
<missing-glyph horiz-adv-x="242" />
<glyph unicode="fi" horiz-adv-x="662" d="M107 450h-80v96h80v30q0 110 58 157t153 47q35 0 69 -3q10 -1 29 -2t33 -1q69 0 120 6l20 -101q-33 -11 -73 -16t-74 -5q-20 0 -58 2q-32 3 -67 3q-42 0 -59.5 -19.5t-17.5 -68.5v-29h348v-546h-134v450h-215v-608h-132v608z" />
<glyph unicode="fl" horiz-adv-x="662" d="M107 450h-80v96h80v29q0 108 58.5 156t152.5 48q33 0 67 -3q11 0 34.5 -1.5t41.5 -1.5q57 0 127 9v-782h-134v658q-17 -1 -37.5 0.5t-28.5 1.5q-31 3 -71 3q-42 0 -59.5 -20t-17.5 -66v-31h117v-96h-118v-608h-132v608z" />
<glyph unicode=" "  horiz-adv-x="242" />
<glyph unicode="&#x09;" horiz-adv-x="242" />
<glyph unicode="&#xa0;" horiz-adv-x="242" />
<glyph unicode="&#x5d0;" horiz-adv-x="636" d="M563.5 337.5q-30.5 -74.5 -85.5 -164.5l100 -124l-93 -79l-292 362l-10 -332h-121l1 85q1 52 17 153t38 187l-68 84l94 77l272 -337q52 134 52 169q0 10 -4 16t-15 14q-38 23 -60 37l53 95q75 -27 108 -49q23 -14 33.5 -31.5t10.5 -42.5q0 -45 -30.5 -119.5z" />
<glyph unicode="&#x5d1;" horiz-adv-x="543" d="M44 115h277v57q0 119 -1 160q-2 48 -11.5 73t-31 35t-62.5 10h-157v115h199q97 0 142 -47t48 -149q1 -26 1 -86l-1 -111q-1 -25 -1 -57h84l-22 -115h-476z" />
<glyph unicode="&#x5d2;" horiz-adv-x="409" d="M17 -16v117q39 3 90 29l124 61l-21 205q-3 28 -13 39t-34 15l-88 11l18 113q79 -6 112 -10q45 -5 70 -18t37 -40t17 -76l39 -387v-39l-106 -16l-13 89h-1l-124 -65q-56 -30 -93 -30q-4 0 -14 2z" />
<glyph unicode="&#x5d3;" horiz-adv-x="550" d="M282 450h-255v115h494l-22 -115h-90v-450h-127v450z" />
<glyph unicode="&#x5d4;" horiz-adv-x="638" d="M444 188l-1 144q-1 48 -10.5 73t-31 35t-62.5 10h-269v115h309q99 0 144 -47.5t48 -152.5q1 -32 1 -123l-1 -242h-128zM76 290l128 19v-309h-128v290z" />
<glyph unicode="&#x5d5;" horiz-adv-x="325" d="M126 450h-88v115h216v-565h-128v450z" />
<glyph unicode="&#x5d6;" horiz-adv-x="400" d="M108 448q-53 6 -94 22l29 113q68 -18 107 -18h214l-23 -115h-105l76 -445l-127 -17z" />
<glyph unicode="&#x5d7;" horiz-adv-x="651" d="M74 92l5 388q0 25 5 85h299q102 0 150.5 -48t50.5 -161q1 -41 1 -179q0 -147 -2 -177h-125v120q0 117 -3 211q-2 48 -11 73t-30 35.5t-60 10.5h-147l-4 -450h-129v92z" />
<glyph unicode="&#x5d8;" horiz-adv-x="616" d="M91 -11l-34 574l124 14l29 -466q73 4 128 36.5t85 87.5t30 126q0 47 -23 72.5t-67 25.5q-29 0 -71 -12l-17 103q61 28 126 28q84 0 131.5 -53t47.5 -147q0 -118 -55 -206.5t-155.5 -136.5t-234.5 -48q-18 0 -44 2z" />
<glyph unicode="&#x5d9;" horiz-adv-x="301" d="M107 450h-80v115h208v-337h-128v222z" />
<glyph unicode="&#x5db;" horiz-adv-x="528" d="M45 115h295q9 50 9 156q0 73 -9.5 110t-35.5 53t-78 16h-161v115h207q75 0 117.5 -24.5t61.5 -79.5t19 -152q0 -146 -31 -309h-407z" />
<glyph unicode="&#x5da;" horiz-adv-x="500" d="M307 166l-1 166q-1 48 -10 73t-31 35t-64 10h-162v115h191q73 0 116.5 -20t64 -64t21.5 -118q1 -48 1 -172l-1 -322h-126z" />
<glyph unicode="&#x5dc;" horiz-adv-x="476" d="M46 75q102 90 158.5 148t85 104.5t28.5 88.5q0 23 -4 34h-256q-14 52 -24 139t-10 155l118 14q1 -46 9.5 -116.5t11.5 -76.5h250q27 -52 27 -124q0 -74 -32 -143t-100 -144t-183 -173z" />
<glyph unicode="&#x5de;" horiz-adv-x="640" d="M124 452q-62 10 -88 20l23 110l56 -10q32 -6 94 -6q20 0 76 2q48 3 97 3q62 0 98 -11.5t57 -37.5q23 -30 32.5 -86.5t9.5 -169.5q-2 -156 -12 -266h-256l9 114h132l1 132q0 93 -7.5 135.5t-29 57.5t-68.5 15l-58 -1q-16 -1 -43 -1l-54 -454h-132z" />
<glyph unicode="&#x5dd;" horiz-adv-x="658" d="M81 92l7 388q2 51 5 85h296q104 0 151 -47.5t50 -161.5q2 -98 2 -207q0 -119 -1 -149h-510v92zM468 115q0 113 -3 216q-2 48 -11 73t-29.5 35.5t-58.5 10.5h-154l-3 -335h259z" />
<glyph unicode="&#x5e0;" horiz-adv-x="392" d="M35 115h171l-13 335h-119v115h243l16 -452q1 -31 -4 -68t-6 -45h-301z" />
<glyph unicode="&#x5df;" horiz-adv-x="326" d="M123 450h-85v115h212v-697h-127v582z" />
<glyph unicode="&#x5e1;" horiz-adv-x="640" d="M196.5 20.5q-55.5 34.5 -85.5 97.5t-30 148q0 53 12 97.5t37 88.5h-89v113h301q131 0 194 -62t63 -192q0 -99 -33 -172.5t-94.5 -113t-143.5 -39.5q-76 0 -131.5 34.5zM433 153.5q34 52.5 34 148.5q0 57 -13.5 89.5t-44.5 46.5t-84 14h-69q-20 -32 -31.5 -75t-11.5 -94 q0 -85 32.5 -133.5t91.5 -48.5q62 0 96 52.5z" />
<glyph unicode="&#x5e2;" horiz-adv-x="600" d="M13 -9l13 113q33 -1 87 -1q52 0 75 3l-83 319q-14 57 -35 108l114 45q14 -29 22.5 -53.5t19.5 -67.5q16 -58 70 -284l12 -53q44 16 67.5 47t33 82.5t9.5 134.5q0 100 -8 174l127 11q9 -40 9 -149q0 -170 -41 -262t-136.5 -130.5t-269.5 -38.5q-56 0 -86 2z" />
<glyph unicode="&#x5e4;" horiz-adv-x="576" d="M47 114h353q0 3 0.5 9t0.5 27q0 118 -7 200q-4 41 -12 61t-26.5 28.5t-54.5 11.5q-22 2 -102 5q-14 -74 -14 -92q0 -16 8 -25.5t31 -18.5q35 -12 40 -13l-27 -95q-53 8 -90 21q-41 15 -61 41t-20 66q0 52 40 230q65 -1 219 -6q71 -3 108.5 -20t55.5 -56t24 -115 q5 -77 5 -155q0 -86 -2.5 -125t-11.5 -93h-469z" />
<glyph unicode="&#x5e3;" horiz-adv-x="563" d="M371 230v102q-1 47 -7.5 69.5t-24 32.5t-54.5 14l-101 7q-5 -24 -11 -64.5t-6 -57.5t5 -25t18 -16q12 -7 60 -27l-33 -100q-39 8 -74 23q-55 21 -77.5 46t-22.5 71q0 68 50 269q150 -8 232 -14q65 -6 101.5 -28.5t52.5 -65t17 -114.5l1 -144l-1 -340h-125v362z" />
<glyph unicode="&#x5e6;" horiz-adv-x="539" d="M473 354q-31 -66 -87 -148l76 -96l-15 -110h-419l13 114h304v4l-139 125q-23 22 -184 268l102 70l204 -303q30 66 42 98.5t12 47.5q0 9 -4 15t-14 13l-21 13q-30 18 -38 23l49 92q77 -27 105 -45q45 -28 45 -75q0 -40 -31 -106z" />
<glyph unicode="&#x5e5;" horiz-adv-x="530" d="M455.5 320q-41.5 -86 -117.5 -191l107 -223l-108 -66l-302 631l-27 50l106 62q10 -12 20 -30.5t24 -47.5l135 -282q42 81 61 129.5t19 72.5q0 9 -4 15t-14 14q-2 2 -31 21q-20 12 -30 19l59 91q74 -32 102 -52q22 -16 32 -34t10 -42q0 -51 -41.5 -137z" />
<glyph unicode="&#x5e7;" horiz-adv-x="606" d="M274 73q92 121 129 194t37 133q0 32 -5 50h-368v115h475q23 -60 23 -139q0 -67 -19 -130t-62 -134.5t-119 -166.5zM72 295l125 12v-439h-125v427z" />
<glyph unicode="&#x5e8;" horiz-adv-x="505" d="M311 206q0 88 -1 126q-1 48 -10 73t-31 35t-63 10h-176v115h216q99 0 144.5 -47.5t47.5 -152.5q1 -28 1 -107l-1 -258h-128z" />
<glyph unicode="&#x5e9;" horiz-adv-x="748" d="M703 458q0 -227 -137 -348.5t-393 -121.5q-36 0 -92 6l-17 565l123 10l6 -230q53 2 81 17t38.5 44.5t10.5 80.5q0 30 -1 50l-1 28l120 10q4 -27 4 -67q0 -85 -24.5 -137.5t-79 -79.5t-145.5 -32l4 -150q32 0 55 1q154 6 237.5 100t83.5 261q0 56 -5 93l123 12 q9 -51 9 -112z" />
<glyph unicode="&#x5ea;" horiz-adv-x="673" d="M482 90l1 116q0 48 -2 126q-1 48 -9 72.5t-29 35t-64 10.5h-317v115h349q100 0 147 -49.5t49 -155.5q2 -86 2 -144q0 -138 -3 -216h-125q0 57 1 90zM26 0l13 113q18 -1 53 -1q37 0 44 1q-2 28 -4 84q0 107 17 198h106q-6 -52 -6 -116q0 -69 6 -157q-1 -25 -7 -87 q-2 -11 -4 -33q-73 -3 -120 -3z" />
<glyph unicode="&#x5b0;" d="M240 -127l60 59l59 -59l-59 -60zM240 -251l60 59l59 -59l-59 -60z" />
<glyph unicode="&#x5b8;" d="M273 -158h-103l1 76h260l-2 -76h-102l14 -120h-82z" />
<glyph unicode="&#x5b7;" d="M170 -82h266l-4 -76h-266z" />
<glyph unicode="&#x5b6;" d="M177 -121l60 59l58 -59l-58 -60zM302 -121l59 59l59 -59l-59 -60zM237 -249l59 60l59 -60l-59 -59z" />
<glyph unicode="&#x5b5;" d="M177 -121l60 59l59 -59l-59 -60zM302 -121l59 59l59 -59l-59 -60z" />
<glyph unicode="&#x5bb;" d="M243 -119l60 59l58 -59l-58 -60zM310 -241l48 68l68 -48l-47 -68zM379 -362l35 75l75 -36l-34 -76z" />
<glyph unicode="&#x5b4;" d="M241 -121l59 59l59 -59l-59 -60z" />
<glyph unicode="&#x5b9;" d="M231 674l70 69l69 -69l-69 -71z" />
<glyph unicode="&#x5ba;" d="M231 674l70 69l69 -69l-69 -71z" />
<glyph unicode="&#x5c1;" d="M231 674l70 69l69 -69l-69 -71z" />
<glyph unicode="&#x5c2;" d="M231 674l70 69l69 -69l-69 -71z" />
<glyph unicode="&#x5bc;" d="M246 291l55 56l55 -56l-55 -55z" />
<glyph unicode="&#x5be;" horiz-adv-x="441" d="M73 565h294l-13 -113h-294z" />
<glyph unicode="&#x5f3;" horiz-adv-x="242" d="M51 444q21 55 27.5 75.5t6.5 38.5t-7 35.5t-27 57.5l108 66q51 -51 51 -115q0 -53 -32.5 -106.5t-90.5 -99.5z" />
<glyph unicode="&#x5f4;" horiz-adv-x="441" d="M52 461q19 51 25.5 71.5t6.5 38.5q0 17 -6.5 33.5t-25.5 55.5l103 63q50 -50 50 -110q0 -51 -32 -102.5t-87 -96.5zM248 461l9 23q14 39 19 55t5 31q0 18 -7 35t-26 55l103 63q50 -50 50 -111q0 -50 -31.5 -102t-87.5 -96z" />
<glyph unicode="&#x5c7;" d="M273 -158h-103l1 76h260l-2 -76h-102l14 -120h-82z" />
<glyph unicode="&#x5b1;" d="M107 -128l60 59l58 -59l-58 -60zM231 -128l60 59l59 -59l-59 -60zM377 -128l60 59l59 -59l-59 -60zM377 -252l60 59l59 -59l-59 -60zM167 -256l59 59l58 -59l-58 -60z" />
<glyph unicode="&#x5b2;" d="M390 -127l60 59l59 -59l-59 -60zM105 -86h242l-5 -76h-242zM390 -251l60 59l59 -59l-59 -60z" />
<glyph unicode="&#x5b3;" d="M385 -127l60 59l59 -59l-59 -60zM191 -162h-94l1 76h242l-1 -76h-94l14 -114h-82zM385 -251l60 59l59 -59l-59 -60z" />
<glyph unicode="&#xfb2e;" horiz-adv-x="636" d="M563.5 337.5q-30.5 -74.5 -85.5 -164.5l100 -124l-93 -79l-292 362l-10 -332h-121l1 85q1 52 17 153t38 187l-68 84l94 77l272 -337q52 134 52 169q0 10 -4 16t-15 14q-38 23 -60 37l53 95q75 -27 108 -49q23 -14 33.5 -31.5t10.5 -42.5q0 -45 -30.5 -119.5zM187 -82h266 l-4 -76h-266z" />
<glyph unicode="&#xfb2f;" horiz-adv-x="636" d="M563.5 337.5q-30.5 -74.5 -85.5 -164.5l100 -124l-93 -79l-292 362l-10 -332h-121l1 85q1 52 17 153t38 187l-68 84l94 77l272 -337q52 134 52 169q0 10 -4 16t-15 14q-38 23 -60 37l53 95q75 -27 108 -49q23 -14 33.5 -31.5t10.5 -42.5q0 -45 -30.5 -119.5zM289 -158 h-103l1 76h260l-2 -76h-102l14 -120h-82z" />
<glyph unicode="&#xfb30;" horiz-adv-x="636" d="M563.5 337.5q-30.5 -74.5 -85.5 -164.5l100 -124l-93 -79l-292 362l-10 -332h-121l1 85q1 52 17 153t38 187l-68 84l94 77l272 -337q52 134 52 169q0 10 -4 16t-15 14q-38 23 -60 37l53 95q75 -27 108 -49q23 -14 33.5 -31.5t10.5 -42.5q0 -45 -30.5 -119.5zM221 101 l55 56l55 -56l-55 -55z" />
<glyph unicode="&#xfb31;" horiz-adv-x="543" d="M44 115h277v57q0 119 -1 160q-2 48 -11.5 73t-31 35t-62.5 10h-157v115h199q97 0 142 -47t48 -149q1 -26 1 -86l-1 -111q-1 -25 -1 -57h84l-22 -115h-476zM114 282l55 56l55 -56l-55 -55z" />
<glyph unicode="&#xfb32;" horiz-adv-x="409" d="M17 -16v117q39 3 90 29l124 61l-21 205q-3 28 -13 39t-34 15l-88 11l18 113q79 -6 112 -10q45 -5 70 -18t37 -40t17 -76l39 -387v-39l-106 -16l-13 89h-1l-124 -65q-56 -30 -93 -30q-4 0 -14 2zM56 289l55 56l55 -56l-55 -55z" />
<glyph unicode="&#xfb33;" horiz-adv-x="550" d="M282 450h-255v115h494l-22 -115h-90v-450h-127v450zM98 264l55 56l55 -56l-55 -55z" />
<glyph unicode="&#xfb34;" horiz-adv-x="638" d="M444 188l-1 144q-1 48 -10.5 73t-31 35t-62.5 10h-269v115h309q99 0 144 -47.5t48 -152.5q1 -32 1 -123l-1 -242h-128zM76 290l128 19v-309h-128v290zM264 298l55 56l55 -56l-55 -55z" />
<glyph unicode="&#xfb4b;" horiz-adv-x="325" d="M126 450h-88v115h216v-565h-128v450zM85 682l70 69l69 -69l-69 -71z" />
<glyph unicode="&#xfb35;" horiz-adv-x="325" d="M126 450h-88v115h216v-565h-128v450zM-22 275l55 56l55 -56l-55 -55z" />
<glyph unicode="&#xfb36;" horiz-adv-x="400" d="M108 448q-53 6 -94 22l29 113q68 -18 107 -18h214l-23 -115h-105l76 -445l-127 -17zM4 267l55 56l55 -56l-55 -55z" />
<glyph unicode="&#xfb38;" horiz-adv-x="616" d="M91 -11l-34 574l124 14l29 -466q73 4 128 36.5t85 87.5t30 126q0 47 -23 72.5t-67 25.5q-29 0 -71 -12l-17 103q61 28 126 28q84 0 131.5 -53t47.5 -147q0 -118 -55 -206.5t-155.5 -136.5t-234.5 -48q-18 0 -44 2zM262 300l55 56l55 -56l-55 -55z" />
<glyph unicode="&#xfb39;" horiz-adv-x="301" d="M107 450h-80v115h208v-337h-128v222zM-38 328l55 56l55 -56l-55 -55z" />
<glyph unicode="&#xfb3b;" horiz-adv-x="528" d="M45 115h295q9 50 9 156q0 73 -9.5 110t-35.5 53t-78 16h-161v115h207q75 0 117.5 -24.5t61.5 -79.5t19 -152q0 -146 -31 -309h-407zM141 279l55 56l55 -56l-55 -55z" />
<glyph unicode="&#xfb3a;" horiz-adv-x="500" d="M307 166l-1 166q-1 48 -10 73t-31 35t-64 10h-162v115h191q73 0 116.5 -20t64 -64t21.5 -118q1 -48 1 -172l-1 -322h-126zM89 252l55 56l55 -56l-55 -55z" />
<glyph unicode="&#xfb3c;" horiz-adv-x="476" d="M46 75q102 90 158.5 148t85 104.5t28.5 88.5q0 23 -4 34h-256q-14 52 -24 139t-10 155l118 14q1 -46 9.5 -116.5t11.5 -76.5h250q27 -52 27 -124q0 -74 -32 -143t-100 -144t-183 -173zM73 327l55 56l55 -56l-55 -55z" />
<glyph unicode="&#xfb3e;" horiz-adv-x="640" d="M124 452q-62 10 -88 20l23 110l56 -10q32 -6 94 -6q20 0 76 2q48 3 97 3q62 0 98 -11.5t57 -37.5q23 -30 32.5 -86.5t9.5 -169.5q-2 -156 -12 -266h-256l9 114h132l1 132q0 93 -7.5 135.5t-29 57.5t-68.5 15l-58 -1q-16 -1 -43 -1l-54 -454h-132zM282 282l55 56l55 -56 l-55 -55z" />
<glyph unicode="&#xfb40;" horiz-adv-x="392" d="M35 115h171l-13 335h-119v115h243l16 -452q1 -31 -4 -68t-6 -45h-301zM44 284l55 56l55 -56l-55 -55z" />
<glyph unicode="&#xfb41;" horiz-adv-x="640" d="M196.5 20.5q-55.5 34.5 -85.5 97.5t-30 148q0 53 12 97.5t37 88.5h-89v113h301q131 0 194 -62t63 -192q0 -99 -33 -172.5t-94.5 -113t-143.5 -39.5q-76 0 -131.5 34.5zM433 153.5q34 52.5 34 148.5q0 57 -13.5 89.5t-44.5 46.5t-84 14h-69q-20 -32 -31.5 -75t-11.5 -94 q0 -85 32.5 -133.5t91.5 -48.5q62 0 96 52.5zM286 281l55 56l55 -56l-55 -55z" />
<glyph unicode="&#xfb44;" horiz-adv-x="576" d="M47 114h353q0 3 0.5 9t0.5 27q0 118 -7 200q-4 41 -12 61t-26.5 28.5t-54.5 11.5q-22 2 -102 5q-14 -74 -14 -92q0 -16 8 -25.5t31 -18.5q35 -12 40 -13l-27 -95q-53 8 -90 21q-41 15 -61 41t-20 66q0 52 40 230q65 -1 219 -6q71 -3 108.5 -20t55.5 -56t24 -115 q5 -77 5 -155q0 -86 -2.5 -125t-11.5 -93h-469zM245 363l55 56l55 -56l-55 -55z" />
<glyph unicode="&#xfb43;" horiz-adv-x="563" d="M371 230v102q-1 47 -7.5 69.5t-24 32.5t-54.5 14l-101 7q-5 -24 -11 -64.5t-6 -57.5t5 -25t18 -16q12 -7 60 -27l-33 -100q-39 8 -74 23q-55 21 -77.5 46t-22.5 71q0 68 50 269q150 -8 232 -14q65 -6 101.5 -28.5t52.5 -65t17 -114.5l1 -144l-1 -340h-125v362z" />
<glyph unicode="&#xfb46;" horiz-adv-x="539" d="M473 354q-31 -66 -87 -148l76 -96l-15 -110h-419l13 114h304v4l-139 125q-23 22 -184 268l102 70l204 -303q30 66 42 98.5t12 47.5q0 9 -4 15t-14 13l-21 13q-30 18 -38 23l49 92q77 -27 105 -45q45 -28 45 -75q0 -40 -31 -106zM65 208l55 56l55 -56l-55 -55z" />
<glyph unicode="&#xfb47;" horiz-adv-x="606" d="M274 73q92 121 129 194t37 133q0 32 -5 50h-368v115h475q23 -60 23 -139q0 -67 -19 -130t-62 -134.5t-119 -166.5zM72 295l125 12v-439h-125v427zM253 336l55 56l55 -56l-55 -55z" />
<glyph unicode="&#xfb48;" horiz-adv-x="505" d="M311 206q0 88 -1 126q-1 48 -10 73t-31 35t-63 10h-176v115h216q99 0 144.5 -47.5t47.5 -152.5q1 -28 1 -107l-1 -258h-128zM105 261l55 56l55 -56l-55 -55z" />
<glyph unicode="&#xfb2a;" horiz-adv-x="748" d="M703 458q0 -227 -137 -348.5t-393 -121.5q-36 0 -92 6l-17 565l123 10l6 -230q53 2 81 17t38.5 44.5t10.5 80.5q0 30 -1 50l-1 28l120 10q4 -27 4 -67q0 -85 -24.5 -137.5t-79 -79.5t-145.5 -32l4 -150q32 0 55 1q154 6 237.5 100t83.5 261q0 56 -5 93l123 12 q9 -51 9 -112zM559 674l70 69l69 -69l-69 -71z" />
<glyph unicode="&#xfb2b;" horiz-adv-x="748" d="M703 458q0 -227 -137 -348.5t-393 -121.5q-36 0 -92 6l-17 565l123 10l6 -230q53 2 81 17t38.5 44.5t10.5 80.5q0 30 -1 50l-1 28l120 10q4 -27 4 -67q0 -85 -24.5 -137.5t-79 -79.5t-145.5 -32l4 -150q32 0 55 1q154 6 237.5 100t83.5 261q0 56 -5 93l123 12 q9 -51 9 -112zM47 674l70 69l69 -69l-69 -71z" />
<glyph unicode="&#xfb49;" horiz-adv-x="748" d="M703 458q0 -227 -137 -348.5t-393 -121.5q-36 0 -92 6l-17 565l123 10l6 -230q53 2 81 17t38.5 44.5t10.5 80.5q0 30 -1 50l-1 28l120 10q4 -27 4 -67q0 -85 -24.5 -137.5t-79 -79.5t-145.5 -32l4 -150q32 0 55 1q154 6 237.5 100t83.5 261q0 56 -5 93l123 12 q9 -51 9 -112zM380 257l55 56l55 -56l-55 -55z" />
<glyph unicode="&#xfb2c;" horiz-adv-x="748" d="M703 458q0 -227 -137 -348.5t-393 -121.5q-36 0 -92 6l-17 565l123 10l6 -230q53 2 81 17t38.5 44.5t10.5 80.5q0 30 -1 50l-1 28l120 10q4 -27 4 -67q0 -85 -24.5 -137.5t-79 -79.5t-145.5 -32l4 -150q32 0 55 1q154 6 237.5 100t83.5 261q0 56 -5 93l123 12 q9 -51 9 -112zM380 257l55 56l55 -56l-55 -55zM559 674l70 69l69 -69l-69 -71z" />
<glyph unicode="&#xfb2d;" horiz-adv-x="748" d="M703 458q0 -227 -137 -348.5t-393 -121.5q-36 0 -92 6l-17 565l123 10l6 -230q53 2 81 17t38.5 44.5t10.5 80.5q0 30 -1 50l-1 28l120 10q4 -27 4 -67q0 -85 -24.5 -137.5t-79 -79.5t-145.5 -32l4 -150q32 0 55 1q154 6 237.5 100t83.5 261q0 56 -5 93l123 12 q9 -51 9 -112zM380 257l55 56l55 -56l-55 -55zM47 674l70 69l69 -69l-69 -71z" />
<glyph unicode="&#xfb4a;" horiz-adv-x="673" d="M482 90l1 116q0 48 -2 126q-1 48 -9 72.5t-29 35t-64 10.5h-317v115h349q100 0 147 -49.5t49 -155.5q2 -86 2 -144q0 -138 -3 -216h-125q0 57 1 90zM26 0l13 113q18 -1 53 -1q37 0 44 1q-2 28 -4 84q0 107 17 198h106q-6 -52 -6 -116q0 -69 6 -157q-1 -25 -7 -87 q-2 -11 -4 -33q-73 -3 -120 -3zM311 266l55 56l55 -56l-55 -55z" />
<glyph unicode="&#x20aa;" horiz-adv-x="1131" d="M464 -6l-12 337q-2 48 -11 73t-29.5 35.5t-59.5 10.5h-148l-4 -450h-129v92l5 388q0 30 5 85h293q102 0 150 -47.5t52 -161.5v-18q53 3 81 18.5t38.5 44.5t10.5 80q0 24 -3 78l120 10q4 -24 4 -67q0 -85 -24.5 -137.5t-78.5 -79.5t-145 -33l3 -149q32 0 55 1 q153 8 237 100.5t84 256.5q0 51 -6 97l122 12q11 -52 11 -115q0 -149 -61.5 -253.5t-180.5 -159t-288 -54.5q-35 0 -91 6z" />
<glyph unicode="A" horiz-adv-x="700" d="M270 707h177l245 -707h-143l-77 229h-255l-87 -229h-139zM438 330l-85 290l-98 -290h183z" />
<glyph unicode="&#xc1;" horiz-adv-x="700" d="M244 835l251 73l25 -106l-255 -57zM270 707h177l245 -707h-143l-77 229h-255l-87 -229h-139zM438 330l-85 290l-98 -290h183z" />
<glyph unicode="&#xc2;" horiz-adv-x="700" d="M176 831l178 89l177 -88l-47 -87l-130 59l-131 -59zM270 707h177l245 -707h-143l-77 229h-255l-87 -229h-139zM438 330l-85 290l-98 -290h183z" />
<glyph unicode="&#xc4;" horiz-adv-x="700" d="M157 825l83 84l84 -84l-84 -84zM382 825l84 84l83 -84l-83 -84zM270 707h177l245 -707h-143l-77 229h-255l-87 -229h-139zM438 330l-85 290l-98 -290h183z" />
<glyph unicode="&#xc0;" horiz-adv-x="700" d="M189 800l25 107l252 -72l-21 -90zM270 707h177l245 -707h-143l-77 229h-255l-87 -229h-139zM438 330l-85 290l-98 -290h183z" />
<glyph unicode="&#xc5;" horiz-adv-x="700" d="M273.5 769q-35.5 25 -35.5 79q0 53 35 81t84 28q45 0 82.5 -25.5t37.5 -81.5q0 -51 -34 -78.5t-84 -27.5t-85.5 25zM396.5 811.5q13.5 13.5 15.5 37.5q0 23 -16 37t-39 14q-54 0 -54 -49q0 -24 15 -38.5t40 -14.5t38.5 13.5zM270 707h177l245 -707h-143l-77 229h-255 l-87 -229h-139zM438 330l-85 290l-98 -290h183z" />
<glyph unicode="&#xc3;" horiz-adv-x="700" d="M385 760q-16 5 -37 15q-36 17 -55 17q-18 0 -34.5 -5.5t-35.5 -20.5l-51 63q24 26 57 47t71 21q22 0 39 -6t38 -17q28 -15 44 -15q23 0 38.5 5.5t40.5 20.5l45 -62q-24 -27 -54.5 -47.5t-72.5 -20.5q-17 0 -33 5zM270 707h177l245 -707h-143l-77 229h-255l-87 -229h-139z M438 330l-85 290l-98 -290h183z" />
<glyph unicode="&#xc6;" horiz-adv-x="953" d="M328 707h555v-108h-302v-193h280v-102h-280v-196h325v-108h-461v270h-186l-125 -270h-154zM445 372v227h-37l-105 -227h142z" />
<glyph unicode="B" horiz-adv-x="664" d="M92 707h227q125 0 187.5 -48t62.5 -140q0 -47 -24 -84t-60 -53v-2q31 -8 62 -29.5t52 -57t21 -81.5q0 -100 -64.5 -156t-206.5 -56h-257v707zM313 409q61 0 90.5 23t29.5 73q0 53 -34 75t-104 22h-66v-193h84zM336 108q74 0 110.5 22.5t36.5 77.5q0 56 -39 80t-121 24 h-94v-204h107z" />
<glyph unicode="C" horiz-adv-x="677" d="M144 83.5q-99 95.5 -99 265.5q0 112 45.5 195.5t131 128.5t202.5 45q71 0 120.5 -11.5t93.5 -31.5l-37 -101q-57 17 -90 23t-88 6q-106 0 -172 -61.5t-66 -182.5q0 -125 71.5 -189.5t189.5 -64.5q48 0 86.5 5.5t77.5 17.5l30 -105q-49 -18 -97 -26.5t-115 -8.5 q-185 0 -284 95.5z" />
<glyph unicode="&#xc7;" horiz-adv-x="677" d="M144 83.5q-99 95.5 -99 265.5q0 112 45.5 195.5t131 128.5t202.5 45q71 0 120.5 -11.5t93.5 -31.5l-37 -101q-57 17 -90 23t-88 6q-106 0 -172 -61.5t-66 -182.5q0 -125 71.5 -189.5t189.5 -64.5q48 0 86.5 5.5t77.5 17.5l30 -105q-49 -18 -97 -26.5t-115 -8.5 q-185 0 -284 95.5zM300 -188q35 22 52 37t17 36q0 13 -5 30.5t-11 33.5h109q22 -46 22 -76q0 -82 -139 -140z" />
<glyph unicode="D" horiz-adv-x="774" d="M92 707h229q188 0 297 -87t109 -264q0 -180 -104.5 -268t-295.5 -88h-235v707zM338 108q252 0 252 238q0 127 -69 190t-203 63h-90v-491h110z" />
<glyph unicode="&#xd0;" horiz-adv-x="803" d="M647 620q109 -87 109 -264q0 -180 -104.5 -268t-295.5 -88h-235v307h-77v86h77v314h229q188 0 297 -87zM619 346q0 127 -69 190t-203 63h-90v-206h144v-86h-144v-199h110q252 0 252 238z" />
<glyph unicode="E" horiz-adv-x="600" d="M92 707h438v-108h-302v-193h280v-102h-280v-196h325v-108h-461v707z" />
<glyph unicode="&#xc9;" horiz-adv-x="600" d="M214 835l251 73l25 -106l-256 -57zM92 707h438v-108h-302v-193h280v-102h-280v-196h325v-108h-461v707z" />
<glyph unicode="&#xca;" horiz-adv-x="600" d="M140 831l178 89l176 -88l-47 -87l-130 59l-131 -59zM92 707h438v-108h-302v-193h280v-102h-280v-196h325v-108h-461v707z" />
<glyph unicode="&#xcb;" horiz-adv-x="600" d="M119 825l83 84l84 -84l-84 -84zM344 825l84 84l83 -84l-83 -84zM92 707h438v-108h-302v-193h280v-102h-280v-196h325v-108h-461v707z" />
<glyph unicode="&#xc8;" horiz-adv-x="600" d="M155 800l25 107l252 -72l-21 -90zM92 707h438v-108h-302v-193h280v-102h-280v-196h325v-108h-461v707z" />
<glyph unicode="F" horiz-adv-x="595" d="M92 707h464v-108h-328v-211h306v-102h-306v-286h-136v707z" />
<glyph unicode="G" horiz-adv-x="710" d="M148.5 82q-101.5 93 -101.5 267q0 181 98.5 274.5t284.5 93.5q70 0 116.5 -10.5t92.5 -30.5l-37 -102q-55 16 -88 22.5t-85 6.5q-108 0 -175 -60t-67 -184q0 -126 72 -190t185 -64q34 0 72 6v238h136v-321q-54 -20 -107 -29.5t-116 -9.5q-179 0 -280.5 93z" />
<glyph unicode="H" horiz-adv-x="790" d="M92 707h136v-299h334v299h136v-707h-136v302h-334v-302h-136v707z" />
<glyph unicode="I" horiz-adv-x="320" d="M92 707h136v-707h-136v707z" />
<glyph unicode="&#xcd;" horiz-adv-x="320" d="M69 835l252 73l24 -106l-255 -57zM92 707h136v-707h-136v707z" />
<glyph unicode="&#xce;" horiz-adv-x="320" d="M-18 831l178 89l177 -88l-48 -87l-129 59l-131 -59zM92 707h136v-707h-136v707z" />
<glyph unicode="&#xcf;" horiz-adv-x="320" d="M-38 825l84 84l83 -84l-83 -84zM188 825l84 84l83 -84l-83 -84zM92 707h136v-707h-136v707z" />
<glyph unicode="&#xcc;" horiz-adv-x="320" d="M-23 800l25 107l252 -72l-21 -90zM92 707h136v-707h-136v707z" />
<glyph unicode="J" horiz-adv-x="322" d="M-51 -95q60 33 91 66t42.5 74.5t11.5 105.5v556h138v-554q0 -85 -16 -146.5t-66.5 -113t-149.5 -87.5z" />
<glyph unicode="K" horiz-adv-x="687" d="M92 707h136v-707h-136v707zM229 372v13l266 322h174l-289 -329l306 -378h-175z" />
<glyph unicode="L" horiz-adv-x="544" d="M92 707h136v-597h307v-110h-443v707z" />
<glyph unicode="&#x141;" horiz-adv-x="567" d="M559 110v-110h-444v277l-72 -42v95l72 41v336h137v-257l116 67v-94l-116 -67v-246h307z" />
<glyph unicode="M" horiz-adv-x="974" d="M92 707h170l215 -594l243 594h162v-707h-137v343l6 145h-4l-193 -488h-163l-167 489h-4l8 -140v-349h-136v707z" />
<glyph unicode="N" horiz-adv-x="792" d="M92 707h162l312 -534h2l-4 83v451h137v-707h-168l-305 523h-4l4 -86v-437h-136v707z" />
<glyph unicode="&#xd1;" horiz-adv-x="792" d="M430.5 760q-15.5 5 -35.5 15q-19 9 -31.5 13t-25.5 4q-18 0 -34 -5.5t-35 -20.5l-51 63q22 25 55.5 46.5t71.5 21.5q22 0 39.5 -6t37.5 -17q12 -6 23.5 -10.5t21.5 -4.5q22 0 37.5 5.5t40.5 20.5l46 -62q-59 -68 -128 -68q-17 0 -32.5 5zM92 707h162l312 -534h2l-4 83 v451h137v-707h-168l-305 523h-4l4 -86v-437h-136v707z" />
<glyph unicode="O" horiz-adv-x="831" d="M209 33q-81 45 -122 127.5t-41 194.5q0 110 46 192t131.5 126.5t200.5 44.5q119 0 200 -46.5t121 -129t40 -189.5q0 -111 -44 -193.5t-129 -127t-205 -44.5q-117 0 -198 45zM588 167.5q58 70.5 58 186.5q0 115 -58.5 185t-170.5 70q-116 0 -174.5 -69.5t-58.5 -183.5 q0 -113 57 -186t169 -73q120 0 178 70.5z" />
<glyph unicode="&#xd3;" horiz-adv-x="831" d="M304 835l251 73l25 -106l-255 -57zM209 33q-81 45 -122 127.5t-41 194.5q0 110 46 192t131.5 126.5t200.5 44.5q119 0 200 -46.5t121 -129t40 -189.5q0 -111 -44 -193.5t-129 -127t-205 -44.5q-117 0 -198 45zM588 167.5q58 70.5 58 186.5q0 115 -58.5 185t-170.5 70 q-116 0 -174.5 -69.5t-58.5 -183.5q0 -113 57 -186t169 -73q120 0 178 70.5z" />
<glyph unicode="&#xd4;" horiz-adv-x="831" d="M240 831l178 89l176 -88l-47 -87l-130 59l-131 -59zM209 33q-81 45 -122 127.5t-41 194.5q0 110 46 192t131.5 126.5t200.5 44.5q119 0 200 -46.5t121 -129t40 -189.5q0 -111 -44 -193.5t-129 -127t-205 -44.5q-117 0 -198 45zM588 167.5q58 70.5 58 186.5 q0 115 -58.5 185t-170.5 70q-116 0 -174.5 -69.5t-58.5 -183.5q0 -113 57 -186t169 -73q120 0 178 70.5z" />
<glyph unicode="&#xd6;" horiz-adv-x="831" d="M214 825l83 84l84 -84l-84 -84zM439 825l84 84l83 -84l-83 -84zM209 33q-81 45 -122 127.5t-41 194.5q0 110 46 192t131.5 126.5t200.5 44.5q119 0 200 -46.5t121 -129t40 -189.5q0 -111 -44 -193.5t-129 -127t-205 -44.5q-117 0 -198 45zM588 167.5q58 70.5 58 186.5 q0 115 -58.5 185t-170.5 70q-116 0 -174.5 -69.5t-58.5 -183.5q0 -113 57 -186t169 -73q120 0 178 70.5z" />
<glyph unicode="&#xd2;" horiz-adv-x="831" d="M255 800l25 107l252 -72l-22 -90zM209 33q-81 45 -122 127.5t-41 194.5q0 110 46 192t131.5 126.5t200.5 44.5q119 0 200 -46.5t121 -129t40 -189.5q0 -111 -44 -193.5t-129 -127t-205 -44.5q-117 0 -198 45zM588 167.5q58 70.5 58 186.5q0 115 -58.5 185t-170.5 70 q-116 0 -174.5 -69.5t-58.5 -183.5q0 -113 57 -186t169 -73q120 0 178 70.5z" />
<glyph unicode="&#xd8;" horiz-adv-x="860" d="M41 19l90 93q-71 94 -71 243q0 110 46 192t131.5 126.5t200.5 44.5q132 0 220 -61l88 91l61 -56l-87 -90q39 -47 59 -111t20 -138q0 -111 -44.5 -193.5t-129.5 -127t-204 -44.5q-141 0 -230 67l-92 -94zM570 566q-57 43 -139 43q-116 0 -174.5 -69.5t-58.5 -183.5 q0 -82 31 -143zM602 167.5q58 70.5 58 186.5q0 87 -35 149l-346 -357q55 -49 145 -49q120 0 178 70.5z" />
<glyph unicode="&#xd5;" horiz-adv-x="831" d="M448.5 760q-15.5 5 -35.5 15q-19 9 -31.5 13t-25.5 4q-18 0 -34 -5.5t-35 -20.5l-51 63q22 25 55.5 46.5t71.5 21.5q22 0 39.5 -6t37.5 -17q12 -6 23.5 -10.5t21.5 -4.5q22 0 37.5 5.5t40.5 20.5l46 -62q-59 -68 -128 -68q-17 0 -32.5 5zM209 33q-81 45 -122 127.5 t-41 194.5q0 110 46 192t131.5 126.5t200.5 44.5q119 0 200 -46.5t121 -129t40 -189.5q0 -111 -44 -193.5t-129 -127t-205 -44.5q-117 0 -198 45zM588 167.5q58 70.5 58 186.5q0 115 -58.5 185t-170.5 70q-116 0 -174.5 -69.5t-58.5 -183.5q0 -113 57 -186t169 -73 q120 0 178 70.5z" />
<glyph unicode="&#x152;" horiz-adv-x="1104" d="M210 33q-81 45 -122 127.5t-41 194.5q0 115 46.5 197t132 124t201.5 42q101 0 169 -38v27h438v-108h-301v-193h279v-102h-279v-196h324v-108h-461v33q-37 -22 -81.5 -33.5t-106.5 -11.5q-117 0 -198 45zM596 178v350q-61 80 -178 80q-116 0 -174 -69t-58 -183 q0 -112 57 -185t168 -73q124 0 185 80z" />
<glyph unicode="P" horiz-adv-x="632" d="M536 643.5q70 -63.5 70 -176.5q0 -69 -35 -124.5t-104.5 -88.5t-168.5 -33h-69v-221h-137v707h258q116 0 186 -63.5zM423.5 363.5q40.5 35.5 40.5 99.5q0 66 -32.5 101t-103.5 35h-99v-271h75q79 0 119.5 35.5z" />
<glyph unicode="&#xde;" horiz-adv-x="634" d="M536.5 535q69.5 -62 69.5 -176q0 -69 -35 -124t-104.5 -87t-168.5 -32h-69v-116h-137v707h137v-110h121q117 0 186.5 -62zM424 257.5q41 34.5 41 97.5q0 66 -32.5 100t-104.5 34h-99v-266h75q79 0 120 34.5z" />
<glyph unicode="Q" horiz-adv-x="831" d="M209 33q-81 45 -122 127.5t-41 194.5q0 110 46 192t131.5 126.5t200.5 44.5q119 0 200 -46.5t121 -129t40 -189.5q0 -111 -44 -193.5t-129 -127t-205 -44.5q-117 0 -198 45zM588 167.5q58 70.5 58 186.5q0 115 -58.5 185t-170.5 70q-116 0 -174.5 -69.5t-58.5 -183.5 q0 -113 57 -186t169 -73q120 0 178 70.5zM578 -162l-22 6q-59 15 -89 20.5t-67 5.5v97q45 0 69 -3t61 -12q27 -7 71 -16q57 -16 127 -16q19 -1 58 -1v-99h-64q-90 2 -144 18z" />
<glyph unicode="R" horiz-adv-x="727" d="M554.5 33q-57.5 40 -118.5 114l-89 114q-21 -3 -49 -3h-69v-258h-137v707h258q117 0 186.5 -56t69.5 -166q0 -62 -30.5 -112.5t-90.5 -79.5l81 -98q34 -40 70 -64.5t88 -38.5l-31 -105q-81 6 -138.5 46zM304 358q161 0 161 122q0 64 -32 91.5t-105 27.5h-99v-241h75z" />
<glyph unicode="S" horiz-adv-x="569" d="M35 42l40 104q52 -23 91.5 -33.5t89.5 -10.5q63 0 101.5 24t38.5 69q0 28 -18 48.5t-45 34t-74 32.5q-64 25 -105 48t-70 64t-29 103q0 61 33.5 104.5t88 66t116.5 22.5q69 0 115.5 -12.5t87.5 -36.5l-40 -101q-41 18 -77 27t-82 9q-48 0 -78 -21.5t-30 -58.5 q0 -34 32.5 -56t100.5 -51q67 -28 109 -52t72.5 -64.5t30.5 -99.5q0 -70 -38.5 -118t-101.5 -71.5t-138 -23.5q-125 0 -221 54z" />
<glyph unicode="&#x160;" horiz-adv-x="569" d="M35 42l40 104q52 -23 91.5 -33.5t89.5 -10.5q63 0 101.5 24t38.5 69q0 28 -18 48.5t-45 34t-74 32.5q-64 25 -105 48t-70 64t-29 103q0 61 33.5 104.5t88 66t116.5 22.5q69 0 115.5 -12.5t87.5 -36.5l-40 -101q-41 18 -77 27t-82 9q-48 0 -78 -21.5t-30 -58.5 q0 -34 32.5 -56t100.5 -51q67 -28 109 -52t72.5 -64.5t30.5 -99.5q0 -70 -38.5 -118t-101.5 -71.5t-138 -23.5q-125 0 -221 54zM107 878l56 75l125 -87l129 87l58 -74l-189 -124z" />
<glyph unicode="T" horiz-adv-x="615" d="M239 598h-229v109h595v-109h-229v-598h-137v598z" />
<glyph unicode="U" horiz-adv-x="780" d="M170.5 53.5q-89.5 66.5 -89.5 218.5v435h138v-429q0 -91 45.5 -134.5t127.5 -43.5q174 0 174 200v407h135v-410q0 -113 -44.5 -182t-114 -98.5t-150.5 -29.5q-132 0 -221.5 66.5z" />
<glyph unicode="&#xda;" horiz-adv-x="782" d="M296 835l251 73l25 -106l-255 -57zM171.5 53.5q-89.5 66.5 -89.5 218.5v435h138v-429q0 -91 45.5 -134.5t127.5 -43.5q174 0 174 200v407h135v-410q0 -113 -44.5 -182t-114 -98.5t-150.5 -29.5q-132 0 -221.5 66.5z" />
<glyph unicode="&#xdb;" horiz-adv-x="782" d="M219 831l178 89l177 -88l-48 -87l-129 59l-131 -59zM171.5 53.5q-89.5 66.5 -89.5 218.5v435h138v-429q0 -91 45.5 -134.5t127.5 -43.5q174 0 174 200v407h135v-410q0 -113 -44.5 -182t-114 -98.5t-150.5 -29.5q-132 0 -221.5 66.5z" />
<glyph unicode="&#xdc;" horiz-adv-x="782" d="M197 825l84 84l83 -84l-83 -84zM423 825l84 84l83 -84l-83 -84zM171.5 53.5q-89.5 66.5 -89.5 218.5v435h138v-429q0 -91 45.5 -134.5t127.5 -43.5q174 0 174 200v407h135v-410q0 -113 -44.5 -182t-114 -98.5t-150.5 -29.5q-132 0 -221.5 66.5z" />
<glyph unicode="&#xd9;" horiz-adv-x="782" d="M227 800l25 107l252 -72l-21 -90zM171.5 53.5q-89.5 66.5 -89.5 218.5v435h138v-429q0 -91 45.5 -134.5t127.5 -43.5q174 0 174 200v407h135v-410q0 -113 -44.5 -182t-114 -98.5t-150.5 -29.5q-132 0 -221.5 66.5z" />
<glyph unicode="V" horiz-adv-x="700" d="M7 707h145l194 -604l224 604h139l-277 -707h-179z" />
<glyph unicode="W" horiz-adv-x="1056" d="M30 707h134l136 -621l175 448l-60 173h136l199 -617l166 617h130l-208 -707h-178l-133 391l-147 -391h-181z" />
<glyph unicode="X" horiz-adv-x="658" d="M254 367l-218 340h156l141 -236l151 236h152l-231 -338l237 -369h-158l-159 265l-169 -265h-154z" />
<glyph unicode="Y" horiz-adv-x="662" d="M261 243l-250 464h157l166 -348l177 348h152l-266 -461v-246h-136v243z" />
<glyph unicode="&#xdd;" horiz-adv-x="662" d="M264 835l251 73l25 -106l-255 -57zM261 243l-250 464h157l166 -348l177 348h152l-266 -461v-246h-136v243z" />
<glyph unicode="&#x178;" horiz-adv-x="662" d="M135 825l83 84l84 -84l-84 -84zM361 825l83 84l84 -84l-84 -84zM261 243l-250 464h157l166 -348l177 348h152l-266 -461v-246h-136v243z" />
<glyph unicode="Z" horiz-adv-x="604" d="M36 98l344 495h-318v114h483v-91l-348 -502h369v-114h-530v98z" />
<glyph unicode="&#x17d;" horiz-adv-x="604" d="M36 98l344 495h-318v114h483v-91l-348 -502h369v-114h-530v98zM114 874l56 75l125 -87l129 87l58 -74l-189 -124z" />
<glyph unicode="a" horiz-adv-x="578" d="M80 32.5q-47 41.5 -47 119.5q0 93 65.5 129t159.5 37l108 1v47q0 46 -26 63t-87 17q-70 0 -154 -25l-27 98q98 40 203 40q115 0 168 -38t53 -125v-265q0 -19 14 -26t39 -8l-5 -101q-10 -1 -33 -1q-50 0 -87.5 14.5t-45.5 47.5q-83 -66 -167 -66t-131 41.5zM366 130v108 l-101 -4q-47 -1 -74.5 -20t-27.5 -52q0 -34 21.5 -50.5t55.5 -16.5q52 0 126 35z" />
<glyph unicode="&#xe1;" horiz-adv-x="578" d="M173 689l219 124l47 -94l-226 -111zM80 32.5q-47 41.5 -47 119.5q0 93 65.5 129t159.5 37l108 1v47q0 46 -26 63t-87 17q-70 0 -154 -25l-27 98q98 40 203 40q115 0 168 -38t53 -125v-265q0 -19 14 -26t39 -8l-5 -101q-10 -1 -33 -1q-50 0 -87.5 14.5t-45.5 47.5 q-83 -66 -167 -66t-131 41.5zM366 130v108l-101 -4q-47 -1 -74.5 -20t-27.5 -52q0 -34 21.5 -50.5t55.5 -16.5q52 0 126 35z" />
<glyph unicode="&#xe2;" horiz-adv-x="578" d="M278 702l-128 -87l-58 75l188 123l179 -123l-55 -75zM80 32.5q-47 41.5 -47 119.5q0 93 65.5 129t159.5 37l108 1v47q0 46 -26 63t-87 17q-70 0 -154 -25l-27 98q98 40 203 40q115 0 168 -38t53 -125v-265q0 -19 14 -26t39 -8l-5 -101q-10 -1 -33 -1q-50 0 -87.5 14.5 t-45.5 47.5q-83 -66 -167 -66t-131 41.5zM366 130v108l-101 -4q-47 -1 -74.5 -20t-27.5 -52q0 -34 21.5 -50.5t55.5 -16.5q52 0 126 35z" />
<glyph unicode="&#xe4;" horiz-adv-x="578" d="M91 716l79 80l80 -80l-80 -80zM316 716l80 80l79 -80l-79 -80zM80 32.5q-47 41.5 -47 119.5q0 93 65.5 129t159.5 37l108 1v47q0 46 -26 63t-87 17q-70 0 -154 -25l-27 98q98 40 203 40q115 0 168 -38t53 -125v-265q0 -19 14 -26t39 -8l-5 -101q-10 -1 -33 -1 q-50 0 -87.5 14.5t-45.5 47.5q-83 -66 -167 -66t-131 41.5zM366 130v108l-101 -4q-47 -1 -74.5 -20t-27.5 -52q0 -34 21.5 -50.5t55.5 -16.5q52 0 126 35z" />
<glyph unicode="&#xe0;" horiz-adv-x="578" d="M126 719l47 95l219 -125l-41 -81zM80 32.5q-47 41.5 -47 119.5q0 93 65.5 129t159.5 37l108 1v47q0 46 -26 63t-87 17q-70 0 -154 -25l-27 98q98 40 203 40q115 0 168 -38t53 -125v-265q0 -19 14 -26t39 -8l-5 -101q-10 -1 -33 -1q-50 0 -87.5 14.5t-45.5 47.5 q-83 -66 -167 -66t-131 41.5zM366 130v108l-101 -4q-47 -1 -74.5 -20t-27.5 -52q0 -34 21.5 -50.5t55.5 -16.5q52 0 126 35z" />
<glyph unicode="&#xe5;" horiz-adv-x="578" d="M194.5 624q-39.5 27 -39.5 88q0 59 39.5 90.5t93.5 31.5q51 0 92.5 -28.5t41.5 -91.5q0 -57 -38 -87t-94 -30t-95.5 27zM332 671q15 15 17 42q0 26 -17 41.5t-44 15.5q-30 0 -45 -14t-15 -41t16.5 -43t44.5 -16t43 15zM80 32.5q-47 41.5 -47 119.5q0 93 65.5 129 t159.5 37l108 1v47q0 46 -26 63t-87 17q-70 0 -154 -25l-27 98q98 40 203 40q115 0 168 -38t53 -125v-265q0 -19 14 -26t39 -8l-5 -101q-10 -1 -33 -1q-50 0 -87.5 14.5t-45.5 47.5q-83 -66 -167 -66t-131 41.5zM366 130v108l-101 -4q-47 -1 -74.5 -20t-27.5 -52 q0 -34 21.5 -50.5t55.5 -16.5q52 0 126 35z" />
<glyph unicode="&#xe3;" horiz-adv-x="578" d="M302.5 643.5q-16.5 5.5 -36.5 14.5q-19 9 -31.5 13.5t-25.5 4.5q-19 0 -34.5 -5.5t-34.5 -21.5l-51 63q59 68 129 68q22 0 38 -5.5t39 -16.5q15 -8 25 -11.5t21 -3.5q22 0 38.5 6t42.5 20l45 -62q-59 -69 -131 -69q-17 0 -33.5 5.5zM80 32.5q-47 41.5 -47 119.5 q0 93 65.5 129t159.5 37l108 1v47q0 46 -26 63t-87 17q-70 0 -154 -25l-27 98q98 40 203 40q115 0 168 -38t53 -125v-265q0 -19 14 -26t39 -8l-5 -101q-10 -1 -33 -1q-50 0 -87.5 14.5t-45.5 47.5q-83 -66 -167 -66t-131 41.5zM366 130v108l-101 -4q-47 -1 -74.5 -20 t-27.5 -52q0 -34 21.5 -50.5t55.5 -16.5q52 0 126 35z" />
<glyph unicode="&#xe6;" horiz-adv-x="893" d="M504.5 11.5q-58.5 20.5 -93.5 67.5q-37 -33 -90 -60t-113 -27q-84 0 -129.5 40t-45.5 119q0 93 63.5 126t161.5 36l108 3v56q0 45 -25.5 59.5t-89.5 14.5q-34 0 -66 -6t-86 -18l-27 98q106 39 203 39q65 0 110.5 -11t73.5 -43q62 54 173 54q114 0 168 -70.5t54 -200.5 v-44l-357 -10q0 -56 22 -86t59 -40.5t92 -10.5q50 0 148 20l19 -99q-38 -12 -88 -19.5t-103 -7.5q-83 0 -141.5 20.5zM716 333q1 59 -25.5 94t-70.5 35q-49 0 -83 -34.5t-35 -103.5zM302 108q43 13 80 30q-11 34 -16 92l-100 -2q-103 -3 -103 -69q0 -33 18.5 -48.5 t50.5 -15.5q27 0 70 13z" />
<glyph unicode="b" horiz-adv-x="617" d="M513 494.5q62 -63.5 62 -196.5q0 -163 -82.5 -236t-219.5 -73q-103 0 -204 33v732h133v-225q32 15 63 22t71 7q115 0 177 -63.5zM399.5 151q39.5 56 39.5 146q0 80 -30 120t-103 40q-50 0 -104 -19v-330q17 -4 40 -8.5t46 -4.5q72 0 111.5 56z" />
<glyph unicode="c" horiz-adv-x="518" d="M168 18.5q-66 29.5 -96.5 92.5t-30.5 165q0 86 34 150t98 99t150 35q97 0 164 -36l-35 -99q-35 13 -60 19t-65 6q-67 0 -108.5 -42.5t-41.5 -131.5q0 -64 15 -102.5t53 -57.5t107 -19q39 0 90 11l22 4l19 -103q-44 -11 -72 -15.5t-68 -4.5q-109 0 -175 29.5z" />
<glyph unicode="&#xe7;" horiz-adv-x="518" d="M168 18.5q-66 29.5 -96.5 92.5t-30.5 165q0 86 34 150t98 99t150 35q97 0 164 -36l-35 -99q-35 13 -60 19t-65 6q-67 0 -108.5 -42.5t-41.5 -131.5q0 -64 15 -102.5t53 -57.5t107 -19q39 0 90 11l22 4l19 -103q-44 -11 -72 -15.5t-68 -4.5q-109 0 -175 29.5zM201 -188 q36 23 53 37.5t17 35.5q0 13 -5 30.5t-11 33.5h108q22 -42 22 -76q0 -81 -138 -140z" />
<glyph unicode="d" horiz-adv-x="617" d="M111 54q-70 63 -70 224q0 91 37 154.5t101.5 95.5t144.5 32q41 0 86 -9v203h133v-754h-133v44q-28 -24 -57.5 -38.5t-72.5 -14.5q-99 0 -169 63zM357.5 112.5q28.5 10.5 52.5 24.5v306q-23 5 -40.5 8t-43.5 3q-78 0 -114.5 -48.5t-36.5 -130.5q0 -92 34.5 -132.5 t93.5 -40.5q26 0 54.5 10.5z" />
<glyph unicode="&#xf0;" horiz-adv-x="632" d="M109.5 59.5q-68.5 70.5 -68.5 201.5q0 83 35 146.5t95.5 98.5t134.5 35q29 0 51 -5t44 -17q-30 50 -86 97l-74 -59l-44 48l63 49q-29 18 -72 38l69 85q49 -18 94 -46l73 58l43 -48l-61 -48q81 -68 127 -165.5t46 -251.5q0 -89 -33.5 -153.5t-95 -99t-145.5 -34.5 q-127 0 -195.5 70.5zM415 139.5q29 43.5 29 125.5q0 170 -141 170q-127 0 -127 -170q0 -81 31 -125t105 -44t103 43.5z" />
<glyph unicode="e" horiz-adv-x="571" d="M113.5 50q-71.5 62 -71.5 214q0 295 266 295q115 0 169.5 -71.5t54.5 -203.5v-48h-356q0 -83 44 -111.5t128 -28.5q61 0 148 23l21 -101q-42 -14 -92.5 -22t-100.5 -8q-139 0 -210.5 62zM395 325q1 63 -24.5 100.5t-74.5 37.5q-50 0 -81.5 -36t-35.5 -102h216z" />
<glyph unicode="&#xe9;" horiz-adv-x="571" d="M186 689l219 124l46 -94l-226 -111zM113.5 50q-71.5 62 -71.5 214q0 295 266 295q115 0 169.5 -71.5t54.5 -203.5v-48h-356q0 -83 44 -111.5t128 -28.5q61 0 148 23l21 -101q-42 -14 -92.5 -22t-100.5 -8q-139 0 -210.5 62zM395 325q1 63 -24.5 100.5t-74.5 37.5 q-50 0 -81.5 -36t-35.5 -102h216z" />
<glyph unicode="&#xea;" horiz-adv-x="571" d="M289 702l-128 -87l-58 75l188 123l179 -123l-55 -75zM113.5 50q-71.5 62 -71.5 214q0 295 266 295q115 0 169.5 -71.5t54.5 -203.5v-48h-356q0 -83 44 -111.5t128 -28.5q61 0 148 23l21 -101q-42 -14 -92.5 -22t-100.5 -8q-139 0 -210.5 62zM395 325q1 63 -24.5 100.5 t-74.5 37.5q-50 0 -81.5 -36t-35.5 -102h216z" />
<glyph unicode="&#xeb;" horiz-adv-x="571" d="M100 716l79 80l80 -80l-80 -80zM326 716l79 80l79 -80l-79 -80zM113.5 50q-71.5 62 -71.5 214q0 295 266 295q115 0 169.5 -71.5t54.5 -203.5v-48h-356q0 -83 44 -111.5t128 -28.5q61 0 148 23l21 -101q-42 -14 -92.5 -22t-100.5 -8q-139 0 -210.5 62zM395 325 q1 63 -24.5 100.5t-74.5 37.5q-50 0 -81.5 -36t-35.5 -102h216z" />
<glyph unicode="&#xe8;" horiz-adv-x="571" d="M137 719l47 95l219 -125l-41 -81zM113.5 50q-71.5 62 -71.5 214q0 295 266 295q115 0 169.5 -71.5t54.5 -203.5v-48h-356q0 -83 44 -111.5t128 -28.5q61 0 148 23l21 -101q-42 -14 -92.5 -22t-100.5 -8q-139 0 -210.5 62zM395 325q1 63 -24.5 100.5t-74.5 37.5 q-50 0 -81.5 -36t-35.5 -102h216z" />
<glyph unicode="f" horiz-adv-x="372" d="M107 450h-80v96h80v27q0 195 201 195q53 0 93 -13l-21 -101q-36 8 -67 8q-38 0 -55.5 -22.5t-17.5 -67.5v-26h117v-96h-117v-608h-133v608z" />
<glyph unicode="g" horiz-adv-x="613" d="M80 -198l22 113q41 -12 88.5 -20t79.5 -8q70 0 104.5 23.5t34.5 90.5v25q-46 -32 -104 -32q-80 0 -137.5 22t-92 82.5t-34.5 171.5q0 92 38 157.5t103 99t145 33.5q102 0 215 -26v-550q0 -71 -36.5 -119t-94.5 -71.5t-123 -23.5q-123 0 -208 32zM408 119v318 q-42 12 -82 12q-78 0 -115 -48t-37 -132q0 -94 35.5 -134t104.5 -40q44 0 94 24z" />
<glyph unicode="h" horiz-adv-x="636" d="M74 754h133v-268q37 29 84.5 51t98.5 22q78 0 117 -28.5t49.5 -72.5t10.5 -113v-345h-131v330q0 43 -7 67t-26.5 35t-55.5 11q-63 0 -140 -45v-398h-133v754z" />
<glyph unicode="i" horiz-adv-x="281" d="M46 716l93 94l95 -94l-95 -95zM74 546h134v-546h-134v546z" />
<glyph unicode="&#xed;" horiz-adv-x="281" d="M33 689l219 124l47 -94l-226 -111zM74 546h134v-546h-134v546z" />
<glyph unicode="&#xee;" horiz-adv-x="281" d="M-45 691l188 122l179 -122l-55 -76l-126 87l-128 -87zM74 546h134v-546h-134v546z" />
<glyph unicode="&#xef;" horiz-adv-x="281" d="M-48 716l79 80l79 -80l-79 -80zM177 716l80 80l79 -80l-79 -80zM74 546h134v-546h-134v546z" />
<glyph unicode="&#xec;" horiz-adv-x="281" d="M-28 719l47 95l219 -125l-41 -81zM74 546h134v-546h-134v546z" />
<glyph unicode="j" horiz-adv-x="281" d="M45 716l93 94l95 -94l-95 -95zM-55.5 -218.5q-29.5 6.5 -50.5 15.5l24 105q37 -13 78 -13q43 0 60.5 25t17.5 81v551h133v-552q0 -124 -55.5 -171.5t-151.5 -47.5q-26 0 -55.5 6.5z" />
<glyph unicode="k" horiz-adv-x="575" d="M486.5 123.5q31.5 -22.5 71.5 -33.5l-18 -101q-42 2 -73.5 10t-65.5 30t-67 65l-127 164v-258h-133v754h133v-447l189 239h146l-211 -253l90 -108q34 -39 65.5 -61.5z" />
<glyph unicode="l" horiz-adv-x="281" d="M74 754h133v-754h-133v754z" />
<glyph unicode="&#x142;" horiz-adv-x="363" d="M337 440l-89 -52v-388h-134v311l-86 -50l-1 95l87 50v348h134v-271l89 51v-94z" />
<glyph unicode="m" horiz-adv-x="969" d="M74 546h133v-59q39 31 85 52t92 21q59 0 97 -22t55 -60q38 33 88.5 57.5t102.5 24.5q79 0 117 -31.5t47 -75t9 -107.5v-346h-133v331q0 59 -18 86t-68 27q-59 0 -131 -45q3 -25 3 -52v-347h-132v331q0 62 -17 87t-67 25q-31 0 -66.5 -12.5t-63.5 -31.5v-399h-133v546z " />
<glyph unicode="n" horiz-adv-x="636" d="M74 546h133v-58q96 72 183 72q79 0 117.5 -28t49.5 -72.5t11 -113.5v-346h-132v331q0 44 -7 67.5t-26.5 34.5t-55.5 11q-67 0 -140 -43v-401h-133v546z" />
<glyph unicode="&#xf1;" horiz-adv-x="637" d="M345 643q-16 5 -36 15q-15 7 -29.5 12.5t-27.5 5.5q-20 0 -35 -5.5t-35 -21.5l-51 63q22 26 55 47t75 21q22 0 38 -5.5t38 -16.5q30 -15 47 -15q22 0 38.5 6t41.5 20l46 -62q-24 -27 -55.5 -48t-76.5 -21q-17 0 -33 5zM74 546h133v-58q96 72 183 72q79 0 117.5 -28 t49.5 -72.5t11 -113.5v-346h-132v331q0 44 -7 67.5t-26.5 34.5t-55.5 11q-67 0 -140 -43v-401h-133v546z" />
<glyph unicode="o" horiz-adv-x="619" d="M109 62.5q-69 74.5 -69 205.5q0 91 34 156.5t95.5 100.5t142.5 35q134 0 200.5 -74.5t66.5 -212.5q0 -92 -35 -156t-97 -96.5t-143 -32.5q-126 0 -195 74.5zM414 142.5q29 47.5 29 130.5q0 81 -29.5 131t-104.5 50q-73 0 -103.5 -50.5t-30.5 -131.5q0 -177 136 -177 q74 0 103 47.5z" />
<glyph unicode="&#xf3;" horiz-adv-x="619" d="M188 689l219 124l47 -94l-226 -111zM109 62.5q-69 74.5 -69 205.5q0 91 34 156.5t95.5 100.5t142.5 35q134 0 200.5 -74.5t66.5 -212.5q0 -92 -35 -156t-97 -96.5t-143 -32.5q-126 0 -195 74.5zM414 142.5q29 47.5 29 130.5q0 81 -29.5 131t-104.5 50q-73 0 -103.5 -50.5 t-30.5 -131.5q0 -177 136 -177q74 0 103 47.5z" />
<glyph unicode="&#xf4;" horiz-adv-x="619" d="M309 702l-128 -87l-58 75l188 123l179 -123l-55 -75zM109 62.5q-69 74.5 -69 205.5q0 91 34 156.5t95.5 100.5t142.5 35q134 0 200.5 -74.5t66.5 -212.5q0 -92 -35 -156t-97 -96.5t-143 -32.5q-126 0 -195 74.5zM414 142.5q29 47.5 29 130.5q0 81 -29.5 131t-104.5 50 q-73 0 -103.5 -50.5t-30.5 -131.5q0 -177 136 -177q74 0 103 47.5z" />
<glyph unicode="&#xf6;" horiz-adv-x="619" d="M120 716l79 80l80 -80l-80 -80zM345 716l80 80l79 -80l-79 -80zM109 62.5q-69 74.5 -69 205.5q0 91 34 156.5t95.5 100.5t142.5 35q134 0 200.5 -74.5t66.5 -212.5q0 -92 -35 -156t-97 -96.5t-143 -32.5q-126 0 -195 74.5zM414 142.5q29 47.5 29 130.5q0 81 -29.5 131 t-104.5 50q-73 0 -103.5 -50.5t-30.5 -131.5q0 -177 136 -177q74 0 103 47.5z" />
<glyph unicode="&#xf2;" horiz-adv-x="619" d="M161 719l47 95l219 -125l-41 -81zM109 62.5q-69 74.5 -69 205.5q0 91 34 156.5t95.5 100.5t142.5 35q134 0 200.5 -74.5t66.5 -212.5q0 -92 -35 -156t-97 -96.5t-143 -32.5q-126 0 -195 74.5zM414 142.5q29 47.5 29 130.5q0 81 -29.5 131t-104.5 50q-73 0 -103.5 -50.5 t-30.5 -131.5q0 -177 136 -177q74 0 103 47.5z" />
<glyph unicode="&#xf8;" horiz-adv-x="640" d="M34 18l65 69q-49 70 -49 181q0 91 34 156.5t95.5 100.5t142.5 35q110 0 174 -52l60 63l44 -43l-61 -64q50 -73 50 -191q0 -92 -35 -156t-97 -96.5t-143 -32.5q-105 0 -172 53l-63 -66zM410 419q-33 35 -91 35q-73 0 -104 -50.5t-31 -131.5q0 -47 12 -85zM424 142.5 q29 47.5 29 130.5q0 48 -12 88l-215 -231q35 -35 95 -35q74 0 103 47.5z" />
<glyph unicode="&#xf5;" horiz-adv-x="619" d="M331.5 643.5q-16.5 5.5 -36.5 14.5q-19 9 -31.5 13.5t-25.5 4.5q-19 0 -34.5 -5.5t-34.5 -21.5l-51 63q59 68 129 68q22 0 38 -5.5t39 -16.5q15 -8 25 -11.5t21 -3.5q22 0 38.5 6t42.5 20l45 -62q-25 -27 -55.5 -48t-75.5 -21q-17 0 -33.5 5.5zM109 62.5 q-69 74.5 -69 205.5q0 91 34 156.5t95.5 100.5t142.5 35q134 0 200.5 -74.5t66.5 -212.5q0 -92 -35 -156t-97 -96.5t-143 -32.5q-126 0 -195 74.5zM414 142.5q29 47.5 29 130.5q0 81 -29.5 131t-104.5 50q-73 0 -103.5 -50.5t-30.5 -131.5q0 -177 136 -177q74 0 103 47.5z " />
<glyph unicode="&#x153;" horiz-adv-x="972" d="M109 62.5q-69 74.5 -69 205.5q0 91 34 156.5t95.5 100.5t142.5 35q134 0 198 -81q66 80 200 80q222 0 222 -275v-48h-356q1 -79 42 -109.5t125 -30.5q27 0 73 7t79 15l22 -105q-35 -10 -87 -16.5t-106 -6.5q-77 0 -132 18.5t-89 61.5q-35 -41 -86 -61.5t-113 -20.5 q-126 0 -195 74.5zM795 325q-1 64 -27 102t-73 38q-48 0 -80 -36.5t-36 -103.5h216zM414 142.5q29 47.5 29 130.5q0 81 -29.5 131t-104.5 50q-73 0 -103.5 -50.5t-30.5 -131.5q0 -177 136 -177q74 0 103 47.5z" />
<glyph unicode="p" horiz-adv-x="621" d="M74 546h132v-41q27 20 65.5 37t74.5 17q113 0 173.5 -64.5t60.5 -199.5q0 -159 -82 -232t-208 -73q-38 0 -84 6v-216h-132v766zM405 146q40 53 40 138q0 81 -31.5 122t-105.5 41q-32 0 -65 -13.5t-37 -15.5v-317q9 -1 33.5 -4.5t54.5 -3.5q71 0 111 53z" />
<glyph unicode="&#xfe;" horiz-adv-x="621" d="M74 754h132v-249q25 19 64.5 36t75.5 17q234 0 234 -263q0 -159 -82 -232t-208 -73q-40 0 -84 6v-216h-132v974zM404.5 146.5q39.5 52.5 39.5 137.5q0 82 -31 122t-105 40q-36 0 -102 -28v-317q7 -1 31.5 -4t56.5 -3q71 0 110.5 52.5z" />
<glyph unicode="q" horiz-adv-x="614" d="M410 21q-49 -30 -116 -30q-107 0 -180 61.5t-73 226.5q0 90 37.5 153t101.5 95.5t144 32.5q71 0 116.5 -7t102.5 -23v-750h-133v241zM360 109q29 6 50 14v319q-39 11 -85 11q-78 0 -114.5 -47.5t-36.5 -129.5q0 -173 130 -173q27 0 56 6z" />
<glyph unicode="r" horiz-adv-x="427" d="M74 546h133v-73q23 33 62 58.5t85 25.5q44 0 71 -9l-19 -110q-31 6 -70 6t-74 -18.5t-55 -43.5v-382h-133v546z" />
<glyph unicode="s" horiz-adv-x="482" d="M38 11l16 104q100 -18 157 -18q109 0 109 55q0 22 -23 35.5t-73 30.5q-54 19 -90.5 37t-62.5 52.5t-26 88.5q0 52 29 89t76.5 56t103.5 19q92 0 170 -29l-24 -99q-39 11 -72 16t-70 5q-39 0 -60 -13.5t-21 -36.5q0 -24 24 -39t76 -34q54 -20 88.5 -38t59.5 -50.5 t25 -82.5q0 -62 -36 -100.5t-88 -54.5t-104 -16q-107 0 -184 23z" />
<glyph unicode="&#x161;" horiz-adv-x="482" d="M38 11l16 104q100 -18 157 -18q109 0 109 55q0 22 -23 35.5t-73 30.5q-54 19 -90.5 37t-62.5 52.5t-26 88.5q0 52 29 89t76.5 56t103.5 19q92 0 170 -29l-24 -99q-39 11 -72 16t-70 5q-39 0 -60 -13.5t-21 -36.5q0 -24 24 -39t76 -34q54 -20 88.5 -38t59.5 -50.5 t25 -82.5q0 -62 -36 -100.5t-88 -54.5t-104 -16q-107 0 -184 23zM63 723l56 75l125 -87l129 87l58 -74l-189 -124z" />
<glyph unicode="&#xdf;" horiz-adv-x="638" d="M74 546q0 117 63.5 169.5t173.5 52.5q44 0 92.5 -14.5t84.5 -52.5t36 -104q0 -39 -17 -68t-49 -65q-22 -25 -33 -41.5t-11 -33.5q0 -26 20 -44t62 -41q38 -21 62 -38.5t41 -45t17 -66.5q0 -59 -30.5 -96.5t-76 -53.5t-92.5 -16q-46 0 -88.5 5.5t-70.5 15.5l17 104 q71 -17 116 -17q42 0 68.5 11.5t26.5 37.5q0 22 -18 37t-56 35q-40 21 -66 39t-44.5 49.5t-18.5 77.5q0 31 13.5 55.5t40.5 60.5q23 29 34.5 49t11.5 42q0 31 -24.5 50t-57.5 19q-53 0 -74 -29t-21 -85v-703h-132v704z" />
<glyph unicode="t" horiz-adv-x="452" d="M148 26.5q-48 39.5 -48 136.5v281h-80v102h80v112h133v-112h169v-102h-169v-274q0 -39 17 -54t57 -15q49 0 109 16l15 -106q-27 -10 -68.5 -17t-71.5 -7q-95 0 -143 39.5z" />
<glyph unicode="u" horiz-adv-x="635" d="M129 16.5q-38 28.5 -49 73t-11 113.5v343h133v-328q0 -43 6.5 -66.5t24.5 -35t54 -11.5q71 0 142 43v398h133v-546h-133v59q-95 -71 -184 -71q-78 0 -116 28.5z" />
<glyph unicode="&#xfa;" horiz-adv-x="635" d="M222 692l219 124l47 -94l-226 -110zM129 16.5q-38 28.5 -49 73t-11 113.5v343h133v-328q0 -43 6.5 -66.5t24.5 -35t54 -11.5q71 0 142 43v398h133v-546h-133v59q-95 -71 -184 -71q-78 0 -116 28.5z" />
<glyph unicode="&#xfb;" horiz-adv-x="635" d="M317 702l-128 -87l-58 75l188 123l179 -123l-55 -75zM129 16.5q-38 28.5 -49 73t-11 113.5v343h133v-328q0 -43 6.5 -66.5t24.5 -35t54 -11.5q71 0 142 43v398h133v-546h-133v59q-95 -71 -184 -71q-78 0 -116 28.5z" />
<glyph unicode="&#xfc;" horiz-adv-x="635" d="M127 716l79 80l79 -80l-79 -80zM352 716l80 80l79 -80l-79 -80zM129 16.5q-38 28.5 -49 73t-11 113.5v343h133v-328q0 -43 6.5 -66.5t24.5 -35t54 -11.5q71 0 142 43v398h133v-546h-133v59q-95 -71 -184 -71q-78 0 -116 28.5z" />
<glyph unicode="&#xf9;" horiz-adv-x="635" d="M148 719l47 95l219 -125l-41 -81zM129 16.5q-38 28.5 -49 73t-11 113.5v343h133v-328q0 -43 6.5 -66.5t24.5 -35t54 -11.5q71 0 142 43v398h133v-546h-133v59q-95 -71 -184 -71q-78 0 -116 28.5z" />
<glyph unicode="v" horiz-adv-x="566" d="M6 546h144l100 -326l31 -112l34 113l112 325h140l-207 -546h-164z" />
<glyph unicode="w" horiz-adv-x="899" d="M19 546h140l97 -440l118 440h161l102 -440l117 440h136l-172 -546h-168l-81 336l-18 85l-20 -84l-92 -337h-169z" />
<glyph unicode="x" horiz-adv-x="568" d="M208 279l-184 267h154l106 -183l107 183h151l-183 -266l199 -280h-160l-114 195l-116 -195h-157z" />
<glyph unicode="y" horiz-adv-x="564" d="M241 0h-52l-183 546h144l103 -349l26 -92l29 91l118 350h135l-267 -766h-128z" />
<glyph unicode="&#xfd;" horiz-adv-x="564" d="M241 0h-52l-183 546h144l103 -349l26 -92l29 91l118 350h135l-267 -766h-128zM209 681l219 124l47 -94l-226 -110z" />
<glyph unicode="&#xff;" horiz-adv-x="564" d="M93 716l79 80l79 -80l-79 -80zM318 716l80 80l79 -80l-79 -80zM241 0h-52l-183 546h144l103 -349l26 -92l29 91l118 350h135l-267 -766h-128z" />
<glyph unicode="z" horiz-adv-x="518" d="M35 93l281 344h-261v109h418v-90l-279 -348h283v-108h-442v93z" />
<glyph unicode="&#x17e;" horiz-adv-x="518" d="M35 93l281 344h-261v109h418v-90l-279 -348h283v-108h-442v93zM76 730l56 75l125 -87l129 87l58 -74l-189 -124z" />
<glyph horiz-adv-x="588" d="M215 546h172l185 -546h-135l-44 141h-209l-51 -141h-131zM364 236l-68 223l-79 -223h147z" />
<glyph horiz-adv-x="588" d="M170 689l219 124l46 -94l-225 -111zM215 546h172l185 -546h-135l-44 141h-209l-51 -141h-131zM364 236l-68 223l-79 -223h147z" />
<glyph horiz-adv-x="588" d="M298 702l-128 -87l-58 75l188 123l179 -123l-55 -75zM215 546h172l185 -546h-135l-44 141h-209l-51 -141h-131zM364 236l-68 223l-79 -223h147z" />
<glyph horiz-adv-x="588" d="M103 716l79 80l79 -80l-79 -80zM328 716l80 80l79 -80l-79 -80zM215 546h172l185 -546h-135l-44 141h-209l-51 -141h-131zM364 236l-68 223l-79 -223h147z" />
<glyph horiz-adv-x="588" d="M155 719l47 95l220 -125l-42 -81zM215 546h172l185 -546h-135l-44 141h-209l-51 -141h-131zM364 236l-68 223l-79 -223h147z" />
<glyph horiz-adv-x="588" d="M201.5 624q-39.5 27 -39.5 88q0 59 39.5 90.5t93.5 31.5q51 0 92.5 -28.5t41.5 -91.5q0 -57 -37.5 -87t-93.5 -30q-57 0 -96.5 27zM339.5 671q15.5 15 17.5 42q0 26 -17.5 41.5t-43.5 15.5q-30 0 -45.5 -14t-15.5 -41t16.5 -43t44.5 -16t43.5 15zM215 546h172l185 -546 h-135l-44 141h-209l-51 -141h-131zM364 236l-68 223l-79 -223h147z" />
<glyph horiz-adv-x="588" d="M313 643.5q-16 5.5 -36 14.5q-19 9 -31.5 13.5t-25.5 4.5q-19 0 -34.5 -5.5t-34.5 -21.5l-51 63q59 68 129 68q22 0 38 -5.5t39 -16.5q16 -8 25.5 -11.5t20.5 -3.5q22 0 39 6t42 20l46 -62q-24 -27 -55.5 -48t-76.5 -21q-18 0 -34 5.5zM215 546h172l185 -546h-135 l-44 141h-209l-51 -141h-131zM364 236l-68 223l-79 -223h147z" />
<glyph horiz-adv-x="826" d="M271 546h493v-99h-268v-125h251v-96h-251v-126h286v-100h-412v163h-162l-80 -163h-133zM370 257v190h-28l-90 -190h118z" />
<glyph horiz-adv-x="589" d="M78 546h227q99 0 152 -38.5t53 -111.5q0 -35 -16 -61t-44 -42q41 -13 69.5 -45.5t28.5 -80.5q0 -78 -53.5 -122.5t-166.5 -44.5h-250v546zM299 314q45 0 64.5 18t19.5 51q0 66 -96 66h-84v-135h96zM323 95q97 0 97 70q0 37 -25.5 53.5t-83.5 16.5h-108v-140h120z" />
<glyph horiz-adv-x="559" d="M122 64.5q-79 73.5 -79 204.5q0 137 77.5 210.5t224.5 73.5q55 0 95 -8.5t82 -26.5l-34 -92q-45 12 -72.5 16.5t-69.5 5.5q-79 0 -127 -42.5t-48 -129.5q0 -89 52 -134.5t139 -45.5q36 0 65.5 4.5t67.5 14.5l29 -95q-30 -12 -58 -17q-51 -12 -118 -12q-147 0 -226 73.5z " />
<glyph horiz-adv-x="559" d="M122 64.5q-79 73.5 -79 204.5q0 137 77.5 210.5t224.5 73.5q55 0 95 -8.5t82 -26.5l-34 -92q-45 12 -72.5 16.5t-69.5 5.5q-79 0 -127 -42.5t-48 -129.5q0 -89 52 -134.5t139 -45.5q36 0 65.5 4.5t67.5 14.5l29 -95q-30 -12 -58 -17q-51 -12 -118 -12q-147 0 -226 73.5z M224 -188q36 23 53 37.5t17 35.5q0 13 -5 30.5t-11 33.5h109q21 -44 21 -76q0 -81 -138 -140z" />
<glyph horiz-adv-x="633" d="M78 546h192q147 0 235 -69t88 -203q0 -138 -84 -206t-235 -68h-196v546zM283 100q94 0 139 41.5t45 125.5q0 179 -199 179h-66v-346h81z" />
<glyph horiz-adv-x="534" d="M78 546h393v-99h-268v-125h251v-96h-251v-126h286v-100h-411v546z" />
<glyph horiz-adv-x="534" d="M175 689l219 124l47 -94l-226 -111zM78 546h393v-99h-268v-125h251v-96h-251v-126h286v-100h-411v546z" />
<glyph horiz-adv-x="534" d="M269 702l-129 -87l-58 75l188 123l180 -123l-56 -75zM78 546h393v-99h-268v-125h251v-96h-251v-126h286v-100h-411v546z" />
<glyph horiz-adv-x="534" d="M80 716l79 80l80 -80l-80 -80zM306 716l79 80l79 -80l-79 -80zM78 546h393v-99h-268v-125h251v-96h-251v-126h286v-100h-411v546z" />
<glyph horiz-adv-x="534" d="M120 719l46 95l220 -125l-42 -81zM78 546h393v-99h-268v-125h251v-96h-251v-126h286v-100h-411v546z" />
<glyph horiz-adv-x="511" d="M78 546h394v-99h-269v-160h252v-95h-252v-192h-125v546z" />
<glyph horiz-adv-x="581" d="M124 64q-81 73 -81 205q0 139 79 211t227 72q52 0 91 -8t82 -26l-34 -92q-46 12 -73.5 16.5t-66.5 4.5q-80 0 -128.5 -41t-48.5 -130t52.5 -134.5t136.5 -45.5q14 0 44 5v169h125v-248q-31 -11 -67 -19q-57 -12 -116 -12q-141 0 -222 73z" />
<glyph horiz-adv-x="658" d="M78 546h125v-223h252v223h125v-546h-125v225h-252v-225h-125v546z" />
<glyph horiz-adv-x="281" d="M78 546h125v-546h-125v546z" />
<glyph horiz-adv-x="281" d="M43 689l219 124l47 -94l-226 -111zM78 546h125v-546h-125v546z" />
<glyph horiz-adv-x="281" d="M136 702l-128 -87l-58 75l188 123l179 -123l-55 -75zM78 546h125v-546h-125v546z" />
<glyph horiz-adv-x="281" d="M-53 716l79 80l80 -80l-80 -80zM173 716l79 80l79 -80l-79 -80zM78 546h125v-546h-125v546z" />
<glyph horiz-adv-x="281" d="M-33 719l47 95l220 -125l-42 -81zM78 546h125v-546h-125v546z" />
<glyph horiz-adv-x="287" d="M-31 -62q48 26 72.5 50.5t33.5 54t9 76.5v427h126v-426q0 -65 -13 -113t-55.5 -89t-124.5 -70z" />
<glyph horiz-adv-x="591" d="M587 0h-162l-222 270v-270h-125v546h125v-238l209 238h162l-249 -254z" />
<glyph horiz-adv-x="480" d="M78 546h125v-445h261v-101h-386v546z" />
<glyph horiz-adv-x="837" d="M78 546h151l185 -432l200 432h145v-546h-118v290l6 79l-167 -369h-136l-157 367l9 -77v-290h-118v546z" />
<glyph horiz-adv-x="681" d="M78 546h144l259 -385l-4 55v330h127v-546h-151l-256 376l6 -56v-320h-125v546z" />
<glyph horiz-adv-x="681" d="M362.5 643.5q-16.5 5.5 -36.5 14.5q-19 9 -31.5 13.5t-25.5 4.5q-19 0 -34.5 -5.5t-34.5 -21.5l-51 63q59 68 129 68q22 0 38 -5.5t39 -16.5q15 -8 25 -11.5t21 -3.5q22 0 39 6t42 20l46 -62q-24 -27 -55.5 -48t-76.5 -21q-17 0 -33.5 5.5zM78 546h144l259 -385l-4 55 v330h127v-546h-151l-256 376l6 -56v-320h-125v546z" />
<glyph horiz-adv-x="677" d="M118 67.5q-75 75.5 -75 205.5q0 133 81.5 206.5t221.5 73.5q142 0 214.5 -76t72.5 -205q0 -132 -79 -206t-222 -74q-139 0 -214 75.5zM464 141q42 49 42 132q0 81 -43 130.5t-124 49.5q-84 0 -126.5 -49t-42.5 -130t41.5 -131.5t122.5 -50.5q88 0 130 49z" />
<glyph horiz-adv-x="677" d="M241 689l219 124l47 -94l-226 -111zM118 67.5q-75 75.5 -75 205.5q0 133 81.5 206.5t221.5 73.5q142 0 214.5 -76t72.5 -205q0 -132 -79 -206t-222 -74q-139 0 -214 75.5zM464 141q42 49 42 132q0 81 -43 130.5t-124 49.5q-84 0 -126.5 -49t-42.5 -130t41.5 -131.5 t122.5 -50.5q88 0 130 49z" />
<glyph horiz-adv-x="677" d="M339 702l-129 -87l-58 75l188 123l179 -123l-55 -75zM118 67.5q-75 75.5 -75 205.5q0 133 81.5 206.5t221.5 73.5q142 0 214.5 -76t72.5 -205q0 -132 -79 -206t-222 -74q-139 0 -214 75.5zM464 141q42 49 42 132q0 81 -43 130.5t-124 49.5q-84 0 -126.5 -49t-42.5 -130 t41.5 -131.5t122.5 -50.5q88 0 130 49z" />
<glyph horiz-adv-x="677" d="M149 716l79 80l79 -80l-79 -80zM374 716l80 80l79 -80l-79 -80zM118 67.5q-75 75.5 -75 205.5q0 133 81.5 206.5t221.5 73.5q142 0 214.5 -76t72.5 -205q0 -132 -79 -206t-222 -74q-139 0 -214 75.5zM464 141q42 49 42 132q0 81 -43 130.5t-124 49.5q-84 0 -126.5 -49 t-42.5 -130t41.5 -131.5t122.5 -50.5q88 0 130 49z" />
<glyph horiz-adv-x="677" d="M175 719l47 95l219 -125l-41 -81zM118 67.5q-75 75.5 -75 205.5q0 133 81.5 206.5t221.5 73.5q142 0 214.5 -76t72.5 -205q0 -132 -79 -206t-222 -74q-139 0 -214 75.5zM464 141q42 49 42 132q0 81 -43 130.5t-124 49.5q-84 0 -126.5 -49t-42.5 -130t41.5 -131.5 t122.5 -50.5q88 0 130 49z" />
<glyph horiz-adv-x="699" d="M53 21l62 62q-61 73 -61 190q0 133 81.5 206.5t221.5 73.5q109 0 180 -49l65 66l44 -44l-63 -62q61 -73 61 -192q0 -132 -79 -206t-222 -74q-112 0 -182 49l-64 -63zM454 421q-43 32 -104 32q-84 0 -126.5 -49t-42.5 -130q0 -59 22 -102zM475 141q42 49 42 132 q0 59 -24 101l-251 -251q42 -31 103 -31q88 0 130 49z" />
<glyph horiz-adv-x="677" d="M360 643q-16 5 -36 15q-20 9 -32 13.5t-25 4.5q-20 0 -35 -5.5t-35 -21.5l-51 63q22 26 55 47t75 21q22 0 38 -5.5t39 -16.5q15 -8 25 -11.5t21 -3.5q22 0 38.5 6t41.5 20l46 -62q-24 -27 -55.5 -48t-76.5 -21q-17 0 -33 5zM118 67.5q-75 75.5 -75 205.5 q0 133 81.5 206.5t221.5 73.5q142 0 214.5 -76t72.5 -205q0 -132 -79 -206t-222 -74q-139 0 -214 75.5zM464 141q42 49 42 132q0 81 -43 130.5t-124 49.5q-84 0 -126.5 -49t-42.5 -130t41.5 -131.5t122.5 -50.5q88 0 130 49z" />
<glyph horiz-adv-x="941" d="M118 67.5q-75 75.5 -75 205.5q0 133 81.5 206.5t221.5 73.5q45 0 78.5 -5.5t60.5 -20.5v19h394v-99h-268v-125h251v-96h-251v-126h286v-100h-412v30q-64 -38 -153 -38q-139 0 -214 75.5zM485 176v191q-19 41 -55.5 63.5t-90.5 22.5q-84 0 -126.5 -49t-42.5 -130 t41.5 -131.5t122.5 -50.5q112 0 151 84z" />
<glyph horiz-adv-x="546" d="M415 521q48 -25 75 -70t27 -104q0 -61 -29 -107.5t-85.5 -72.5t-135.5 -26h-63v-141h-126v546h229q60 0 108 -25zM357.5 270q29.5 29 29.5 74q0 47 -23.5 74t-73.5 27h-86v-204h67q57 0 86.5 29z" />
<glyph horiz-adv-x="677" d="M118 63.5q-75 76.5 -75 208.5q0 133 81.5 207t221.5 74q142 0 214.5 -76t72.5 -206q0 -134 -79 -209t-222 -75q-139 0 -214 76.5zM463.5 137.5q42.5 49.5 42.5 133.5q0 82 -43 131.5t-124 49.5q-84 0 -126.5 -49t-42.5 -130q0 -82 41.5 -133.5t122.5 -51.5 q87 0 129.5 49.5zM575 -164q-81 6 -118 18l-31 9q-39 11 -59 14.5t-54 3.5v86q47 0 82 -4t71 -14q53 -16 118 -18q34 -2 47 -2v-95q-37 0 -56 2z" />
<glyph horiz-adv-x="600" d="M459 16q-46 22 -87 66l-92 102h-33h-43v-184h-126v546h215q94 0 150.5 -45.5t56.5 -133.5q0 -48 -23.5 -88.5t-68.5 -63.5l58 -57q29 -29 54 -44t68 -27l-23 -96q-60 3 -106 25zM257 277q58 0 86 20.5t28 63.5t-23 63.5t-72 20.5h-72v-168h53z" />
<glyph horiz-adv-x="523" d="M122.5 0q-47.5 10 -89.5 29l36 97q55 -17 90 -24.5t79 -7.5q54 0 82.5 15t28.5 44q0 22 -23.5 35.5t-73.5 31.5l-31 11q-51 19 -86 38.5t-59.5 52.5t-24.5 82q0 50 31 84t81.5 51t107.5 17q62 0 101 -8t86 -29l-30 -93q-48 15 -80.5 21.5t-72.5 6.5q-45 0 -65.5 -13.5 t-20.5 -36.5q0 -24 27 -39.5t87 -38.5q58 -22 95 -40.5t64.5 -50.5t27.5 -77q0 -85 -73 -126.5t-177 -41.5q-70 0 -117.5 10z" />
<glyph horiz-adv-x="524" d="M199 446h-183v100h492v-100h-183v-446h-126v446z" />
<glyph horiz-adv-x="651" d="M144.5 38.5q-74.5 48.5 -74.5 165.5v342h127v-337q0 -54 35.5 -84t94.5 -30q61 0 96 32.5t35 97.5v321h124v-323q0 -127 -75 -180t-180 -53q-108 0 -182.5 48.5z" />
<glyph horiz-adv-x="652" d="M229 689l219 124l47 -94l-226 -111zM145.5 38.5q-74.5 48.5 -74.5 165.5v342h127v-337q0 -54 35.5 -84t94.5 -30q61 0 96 32.5t35 97.5v321h124v-323q0 -127 -75 -180t-180 -53q-108 0 -182.5 48.5z" />
<glyph horiz-adv-x="652" d="M327 702l-129 -87l-58 75l188 123l180 -123l-56 -75zM145.5 38.5q-74.5 48.5 -74.5 165.5v342h127v-337q0 -54 35.5 -84t94.5 -30q61 0 96 32.5t35 97.5v321h124v-323q0 -127 -75 -180t-180 -53q-108 0 -182.5 48.5z" />
<glyph horiz-adv-x="652" d="M135 716l79 80l79 -80l-79 -80zM360 716l80 80l79 -80l-79 -80zM145.5 38.5q-74.5 48.5 -74.5 165.5v342h127v-337q0 -54 35.5 -84t94.5 -30q61 0 96 32.5t35 97.5v321h124v-323q0 -127 -75 -180t-180 -53q-108 0 -182.5 48.5z" />
<glyph horiz-adv-x="652" d="M169 719l47 95l219 -125l-41 -81zM145.5 38.5q-74.5 48.5 -74.5 165.5v342h127v-337q0 -54 35.5 -84t94.5 -30q61 0 96 32.5t35 97.5v321h124v-323q0 -127 -75 -180t-180 -53q-108 0 -182.5 48.5z" />
<glyph horiz-adv-x="589" d="M16 546h134l142 -457l167 457h130l-215 -546h-176z" />
<glyph horiz-adv-x="860" d="M30 546h125l99 -448l124 310l-49 138h126l148 -445l121 445h122l-166 -546h-152l-99 274l-110 -274h-155z" />
<glyph horiz-adv-x="569" d="M214 279l-185 267h146l113 -183l118 183h143l-194 -265l196 -281h-148l-122 191l-129 -191h-143z" />
<glyph horiz-adv-x="554" d="M212 162l-208 384h144l131 -287l139 287h141l-221 -382v-164h-126v162z" />
<glyph horiz-adv-x="554" d="M87 716l79 80l80 -80l-80 -80zM312 716l80 80l79 -80l-79 -80zM212 162l-208 384h144l131 -287l139 287h141l-221 -382v-164h-126v162z" />
<glyph horiz-adv-x="536" d="M45 101l286 341h-280v104h437v-80l-303 -362h307v-104h-447v101z" />
<glyph horiz-adv-x="536" d="M45 101l286 341h-280v104h437v-80l-303 -362h307v-104h-447v101z" />
<glyph unicode="&#xaa;" horiz-adv-x="427" d="M89.5 411.5q-27.5 23.5 -27.5 70.5q0 94 133 94l57 1v27q0 22 -13 29t-48 7q-32 0 -90 -15l-19 65q66 24 124 24q60 0 95.5 -18t35.5 -75v-149q0 -9 6.5 -11.5t22.5 -3.5l-4 -66q-88 -5 -102 31q-19 -14 -43.5 -24t-49.5 -10q-50 0 -77.5 23.5zM218.5 465q25.5 8 33.5 10 v46l-53 -2q-52 -2 -52 -31q0 -16 7.5 -23.5t23.5 -7.5q15 0 40.5 8zM63 357h305v-68h-305v68z" />
<glyph unicode="&#xba;" horiz-adv-x="437" d="M99 426.5q-41 43.5 -41 119.5q0 79 44 124.5t118 45.5q81 0 121 -43.5t40 -123.5q0 -79 -45.5 -122.5t-119.5 -43.5q-76 0 -117 43.5zM274 479q15 24 15 70q0 44 -15 69.5t-55 25.5q-72 0 -72 -96q0 -93 73 -93q39 0 54 24zM65 357h306v-68h-306v68z" />
<glyph unicode="0" horiz-adv-x="647" d="M103.5 58q-74.5 70 -74.5 210q0 139 78.5 215.5t223.5 76.5q142 0 214.5 -74.5t72.5 -203.5q0 -146 -79.5 -220t-218.5 -74q-142 0 -216.5 70zM438 145.5q44 46.5 44 133.5q0 80 -41 125t-114 45q-76 0 -119 -46t-43 -133q0 -84 44 -127.5t114 -43.5q71 0 115 46.5z" />
<glyph unicode="1" horiz-adv-x="379" d="M157 446h-142v93l276 27v-566h-134v446z" />
<glyph unicode="2" horiz-adv-x="527" d="M43 110l59 42q104 72 166 125.5t62 93.5q0 43 -27.5 61t-77.5 18q-35 0 -71.5 -9.5t-62.5 -20.5l-34 97q25 15 75 29t99 14q126 0 178 -52.5t52 -132.5q0 -129 -249 -267h277v-108h-446v110z" />
<glyph unicode="3" horiz-adv-x="498" d="M87.5 -160.5q-39.5 8.5 -72.5 19.5l27 108q38 -11 73 -17t78 -6q66 0 99.5 20.5t33.5 74.5q0 55 -34.5 83t-107.5 36q-13 2 -41 2v93l34 3q59 8 88.5 34.5t29.5 73.5q0 44 -32.5 64t-81.5 20q-32 0 -61.5 -6.5t-45.5 -13.5l-32 94q38 19 76.5 27.5t88.5 8.5 q95 0 157 -45.5t62 -131.5q0 -65 -32 -104t-76 -57q61 -22 102 -67t41 -113q0 -108 -73 -158.5t-185 -50.5q-76 0 -115.5 8.5z" />
<glyph unicode="4" horiz-adv-x="605" d="M340 30h-315v92l244 424h204v-408h104v-108h-104v-192h-133v192zM340 138v335l-189 -335h189z" />
<glyph unicode="5" horiz-adv-x="532" d="M122.5 -164q-52.5 7 -83.5 17l32 110q44 -11 78.5 -15.5t80.5 -4.5q59 0 94.5 29t35.5 78q0 117 -131 117q-73 0 -165 -9v388h396v-108h-268v-168q34 3 64 3q109 0 173.5 -56t64.5 -156q0 -73 -34 -125.5t-94 -79.5t-136 -27q-55 0 -107.5 7z" />
<glyph unicode="6" horiz-adv-x="595" d="M111.5 63q-66.5 75 -66.5 243q0 134 40.5 225.5t114.5 137t174 45.5q38 0 74 -5.5t60 -14.5l-29 -104q-50 12 -107 12q-109 0 -151.5 -83t-42.5 -219q0 -75 12.5 -118.5t42 -64t82.5 -20.5q50 0 80 35.5t30 91.5q0 65 -31.5 95.5t-87.5 30.5q-23 0 -52 -4l-12 94 q42 13 94 13q106 0 164 -58t58 -161q0 -77 -33 -132.5t-90 -84.5t-127 -29q-130 0 -196.5 75z" />
<glyph unicode="7" horiz-adv-x="513" d="M58 -143l295 570h-323v119h458v-93l-312 -636z" />
<glyph unicode="8" horiz-adv-x="587" d="M108.5 35.5q-69.5 47.5 -69.5 138.5q0 69 39.5 114t107.5 82q-57 37 -89 75t-32 91q0 88 65 135t170 47q68 0 119 -24t78.5 -63.5t27.5 -85.5q0 -57 -36 -95.5t-102 -77.5q76 -41 118 -82t42 -104q0 -97 -70 -147.5t-187 -50.5q-112 0 -181.5 47.5zM392 530 q0 40 -23.5 64t-69.5 24q-53 0 -78.5 -24.5t-25.5 -64.5q0 -61 95 -114q102 52 102 115zM381.5 114.5q31.5 25.5 31.5 75.5q0 36 -34.5 68t-95.5 65q-114 -64 -114 -137q0 -46 34.5 -71.5t92.5 -25.5q54 0 85.5 25.5z" />
<glyph unicode="9" horiz-adv-x="599" d="M486.5 480.5q68.5 -79.5 68.5 -238.5q0 -208 -86.5 -308t-247.5 -100q-36 0 -71 5.5t-60 14.5l29 105q54 -13 104 -13q87 0 131 47.5t58 132.5q-54 -28 -133 -28q-238 0 -238 221q0 76 33.5 130.5t90 82.5t126.5 28q127 0 195.5 -79.5zM355.5 209q34.5 8 64.5 18v15 q0 112 -31 160t-105 48q-50 0 -79.5 -33t-29.5 -89q0 -70 31 -98.5t88 -28.5q27 0 61.5 8z" />
<glyph unicode="&#x2044;" horiz-adv-x="175" d="M-206 121l537 540l50 -52l-537 -542z" />
<glyph unicode="*" horiz-adv-x="435" d="M170 761h97l-28 -123h-43zM38 632l47 84l96 -88l-21 -37zM255 628l95 86l47 -84l-121 -38zM38 537l122 37l20 -36l-96 -85zM255 537l22 37l122 -40l-48 -84zM198 528h40l26 -123h-96z" />
<glyph unicode="\" horiz-adv-x="402" d="M25 768h119l233 -830h-119z" />
<glyph unicode="&#xb7;" horiz-adv-x="258" d="M41 377l88 88l89 -88l-89 -90z" />
<glyph unicode="&#x2022;" horiz-adv-x="379" d="M116.5 227q-33.5 19 -53 52t-19.5 73t19.5 73.5t52.5 52.5t73 19t73 -19t52.5 -52.5t19.5 -73.5t-19.5 -73t-53 -52t-72.5 -19t-72.5 19z" />
<glyph unicode=":" horiz-adv-x="316" d="M83 546h151v-136h-151v136zM83 136h151v-136h-151v136z" />
<glyph unicode="," horiz-adv-x="271" d="M64 142h141v-72q0 -58 -14 -109t-39 -91h-116q13 29 20.5 76t7.5 87v109z" />
<glyph unicode="&#x2026;" horiz-adv-x="850" d="M63 126h139v-126h-139v126zM354 126h139v-126h-139v126zM648 126h139v-126h-139v126z" />
<glyph unicode="!" horiz-adv-x="324" d="M95 375v332h134v-332l-8 -173h-118zM93 124h138v-124h-138v124z" />
<glyph unicode="&#xa1;" horiz-adv-x="295" d="M79 546h138v-124h-138v124zM81 171l8 173h118l7 -173v-332h-133v332z" />
<glyph unicode="#" horiz-adv-x="672" d="M132 149h-86v108h93l12 181h-105v108h113l10 161h127l-10 -161h129l10 161h127l-10 -161h84v-108h-91l-12 -181h103v-108h-110l-9 -149h-127l9 149h-130l-9 -149h-127zM396 257l11 181h-129l-12 -181h130z" />
<glyph unicode="." horiz-adv-x="279" d="M64 136h151v-136h-151v136z" />
<glyph unicode="?" horiz-adv-x="414" d="M72 267q0 35 15.5 64.5t36.5 51t54 49.5q31 27 45 42t14 31q0 43 -47 66t-142 31l25 111q131 -9 216.5 -55t85.5 -147q0 -47 -29 -83t-83 -80q-37 -29 -55 -49t-18 -40q0 -32 14 -64l-109 -18q-23 46 -23 90zM88 124h138v-124h-138v124z" />
<glyph unicode="&#xbf;" horiz-adv-x="383" d="M176 546h138v-124h-138v124zM26 39q0 47 29.5 82t83.5 78q38 30 55.5 49t17.5 39q0 12 -4 30t-10 34l108 18q23 -47 23 -89q0 -51 -27.5 -87t-77.5 -77q-30 -24 -44.5 -40.5t-14.5 -32.5q0 -42 47 -65t141 -31l-25 -111q-302 21 -302 203z" />
<glyph unicode="&#x22;" horiz-adv-x="403" d="M164 754l-9 -239h-95l-9 239h113zM352 754l-9 -239h-95l-9 239h113z" />
<glyph unicode="'" horiz-adv-x="222" d="M171 754l-9 -239h-102l-9 239h120z" />
<glyph unicode=";" horiz-adv-x="315" d="M233 546v-136h-151v136h151zM85 133h146v-84q0 -52 -16 -98t-43 -81h-119q17 33 24.5 72t7.5 69v122z" />
<glyph unicode="/" horiz-adv-x="402" d="M258 768h119l-233 -830h-119z" />
<glyph unicode="_" horiz-adv-x="563" d="M26 -77h511v-109h-511v109z" />
<glyph unicode="{" horiz-adv-x="358" d="M142.5 -187.5q-52.5 34.5 -52.5 118.5q0 9 2 29l20 192q3 25 -17 46.5t-61 21.5v106q41 0 61 21t17 46l-20 196q-2 22 -2 31q1 81 54 115.5t150 34.5h45v-112h-40q-39 0 -59.5 -18t-20.5 -49q0 -8 1 -13l20 -176q2 -18 2 -24q0 -76 -70 -103v-2q70 -31 70 -104 q0 -8 -2 -24l-20 -176l-1 -12q0 -31 20 -49t60 -18h40v-112h-45q-99 0 -151.5 34.5z" />
<glyph unicode="}" horiz-adv-x="358" d="M19 -110h41q39 0 59 18t20 48q0 9 -1 13l-20 176q-2 16 -2 24q0 73 70 104v2q-70 27 -70 103q0 6 2 24l20 176q1 5 1 13q0 31 -20 49t-59 18h-41v112h45q97 0 150 -34.5t54 -115.5v-8q0 -15 -1 -23l-21 -196q-3 -25 17 -46t61 -21v-106q-41 0 -61 -21.5t-17 -46.5 l21 -192q2 -20 2 -29q0 -84 -53 -118.5t-152 -34.5h-45v112z" />
<glyph unicode="[" horiz-adv-x="336" d="M77 754h233v-104h-107v-766h107v-104h-233v974z" />
<glyph unicode="]" horiz-adv-x="336" d="M26 -116h107v766h-107v104h234v-974h-234v104z" />
<glyph unicode="(" horiz-adv-x="369" d="M104 -13.5q-65 126.5 -65 290.5q0 160 65.5 285.5t171.5 196.5l68 -67q-86 -74 -135 -177t-49 -237q0 -126 47.5 -237.5t132.5 -190.5l-64 -70q-107 80 -172 206.5z" />
<glyph unicode=")" horiz-adv-x="369" d="M29 -150q85 79 132.5 190.5t47.5 237.5q0 134 -49 237t-135 177l68 67q106 -71 171.5 -196.5t65.5 -285.5q0 -165 -64.5 -291.5t-172.5 -205.5z" />
<glyph unicode="&#x2014;" horiz-adv-x="962" d="M82 334h798v-95h-798v95z" />
<glyph unicode="&#x2013;" horiz-adv-x="636" d="M82 334h472v-95h-472v95z" />
<glyph unicode="-" horiz-adv-x="461" d="M82 341h298v-109h-298v109z" />
<glyph unicode="&#xab;" horiz-adv-x="495" d="M39 272l119 224l86 -34l-90 -190l89 -185l-85 -41zM242 272l120 224l86 -34l-90 -190l89 -185l-85 -41z" />
<glyph unicode="&#xbb;" horiz-adv-x="494" d="M48 87l88 185l-89 190l86 34l119 -224l-119 -226zM252 87l88 185l-89 190l86 34l119 -224l-119 -226z" />
<glyph unicode="&#x2039;" horiz-adv-x="291" d="M39 272l119 224l86 -34l-90 -190l89 -185l-85 -41z" />
<glyph unicode="&#x203a;" horiz-adv-x="291" d="M48 88l88 184l-89 190l86 34l119 -224l-119 -226z" />
<glyph unicode="&#x201e;" horiz-adv-x="401" d="M169 125v-79q0 -94 -55 -168h-81q16 31 23 67.5t7 62.5v117h106zM341 125v-79q0 -94 -55 -168h-81q16 31 23 67.5t7 62.5v117h106z" />
<glyph unicode="&#x201c;" horiz-adv-x="400" d="M67.5 676.5q14.5 45.5 39.5 78.5h85q-16 -31 -23 -67t-7 -62v-121h-109v76q0 50 14.5 95.5zM247 676q15 45 40 79h85q-17 -31 -24 -67t-7 -62v-121h-109v76q0 50 15 95z" />
<glyph unicode="&#x201d;" horiz-adv-x="400" d="M181 755v-82q0 -95 -54 -168h-85q16 31 23 67.5t7 62.5v120h109zM361 755v-82q0 -94 -55 -168h-85q17 31 23.5 66.5t6.5 63.5v120h110z" />
<glyph unicode="&#x2018;" horiz-adv-x="232" d="M107 755h84q-16 -31 -23 -67t-7 -62v-121h-108v82q0 95 54 168z" />
<glyph unicode="&#x2019;" horiz-adv-x="232" d="M180 755v-82q0 -95 -54 -168h-84q16 31 23 67.5t7 62.5v120h108z" />
<glyph unicode="&#x201a;" horiz-adv-x="236" d="M63 122h110v-76q0 -95 -54 -168h-86q16 31 23 67.5t7 62.5v114z" />
<glyph unicode="&#x20ac;" horiz-adv-x="694" d="M242 50q-84 59 -113 168h-90v89h76q-1 14 -1 42q0 33 2 49h-77v88h90q59 228 334 228q69 0 112 -10t84 -29l-37 -99q-52 15 -80 20t-81 5q-137 0 -184 -115h234v-88h-256q-2 -12 -2 -39q0 -26 3 -52h255v-89h-226q53 -112 199 -112q46 0 76.5 5t69.5 15l31 -103 q-46 -17 -87 -24.5t-108 -7.5q-140 0 -224 59z" />
<glyph unicode="&#xa2;" horiz-adv-x="507" d="M244 100q-110 16 -159 82.5t-49 195.5q0 112 54.5 184.5t152.5 92.5l-2 98h122l-3 -93q66 -6 116 -34l-36 -98q-33 13 -57 18.5t-64 5.5q-66 0 -106 -42t-40 -132q0 -64 14 -101.5t51.5 -56t106.5 -18.5q33 0 81 8l27 4l19 -103q-40 -9 -61.5 -12.5t-50.5 -4.5l3 -94 h-122z" />
<glyph unicode="$" horiz-adv-x="527" d="M213 -9q-67 1 -113 13.5t-83 32.5l40 100q47 -18 86.5 -25.5t92.5 -7.5q65 0 103.5 21.5t38.5 65.5q0 28 -17.5 48.5t-44 34.5t-74.5 35q-64 27 -105 51t-70 66t-29 104q0 75 48.5 119.5t125.5 57.5l-2 93h122l-2 -90q44 -4 77.5 -14t69.5 -26l-39 -96q-46 14 -79.5 21 t-79.5 7q-54 0 -81.5 -18t-27.5 -52t32.5 -57t99.5 -52q67 -30 109.5 -56t73 -68t30.5 -102q0 -82 -50.5 -131t-134.5 -66l3 -100h-123z" />
<glyph unicode="&#x192;" horiz-adv-x="498" d="M-7 -115l23 1q48 3 75.5 9t48 27.5t22.5 66.5l13 243h-101v110h109l8 154q6 89 47.5 136t105.5 62.5t153 15.5l8 -115l-27 -2q-49 -3 -78.5 -9.5t-51 -27.5t-23.5 -63l-8 -151h108v-110h-115l-13 -245q-5 -78 -37.5 -125t-96.5 -68t-166 -21z" />
<glyph unicode="&#xa3;" horiz-adv-x="527" d="M54 108q30 14 46.5 51t21.5 76h-86v108h93l-1 94v62q0 94 43.5 139.5t104 57t150.5 12.5l5 -110q-20 -2 -29 -2q-56 -4 -82.5 -10.5t-41 -26.5t-14.5 -63v-49q0 -27 -2 -75l-1 -29h161v-108h-174q-14 -85 -48 -127h297v-108h-443v108z" />
<glyph unicode="&#xa5;" horiz-adv-x="700" d="M466 342h171v-109h-226v-88h226v-108h-226v-37h-137v37h-211v108h211v88h-211v109h157l-196 365h157l166 -348l177 348h152z" />
<glyph unicode="+" horiz-adv-x="583" d="M237 254l-205 -1v103l205 -3v209h104l-4 -211l214 5v-103l-212 1l2 -206h-104v206z" />
<glyph unicode="&#x2212;" horiz-adv-x="600" d="M41 356h519v-103h-519v103z" />
<glyph unicode="&#xd7;" horiz-adv-x="563" d="M280 235l-160 -163l-74 74l162 161l-162 160l72 74l160 -164l163 165l75 -74l-169 -163l170 -163l-72 -74z" />
<glyph unicode="&#xf7;" horiz-adv-x="629" d="M253 553h116v-109h-116v109zM55 356h519v-103h-519v103zM253 164h116v-110h-116v110z" />
<glyph unicode="=" horiz-adv-x="643" d="M86 472h469l2 -103h-470zM86 236h469l2 -103h-470z" />
<glyph unicode="&#x2260;" horiz-adv-x="600" d="M136 133h-73l-1 103h150l99 133h-248l-1 103h325l85 110h89l-84 -110h61v-103h-137l-100 -133h237v-103h-312l-93 -122h-90z" />
<glyph unicode="&#x3e;" horiz-adv-x="507" d="M55 168l311 135l-311 143v114l417 -197v-119l-417 -190v114z" />
<glyph unicode="&#x3c;" horiz-adv-x="507" d="M36 244v119l416 197v-114l-311 -143l311 -135v-114z" />
<glyph unicode="&#x2265;" horiz-adv-x="600" d="M78 242l312 111l-312 112v115l443 -161v-131l-443 -161v115zM76 109h447v-109h-447v109z" />
<glyph unicode="&#x2264;" horiz-adv-x="600" d="M78 288v131l443 161v-115l-312 -112l312 -111v-115zM76 109h447v-109h-447v109z" />
<glyph unicode="&#xb1;" horiz-adv-x="544" d="M323 292l2 -188h169v-104h-443v104h169v188l-169 -1v104l169 -3v170h105l-4 -172l173 5v-104z" />
<glyph unicode="~" horiz-adv-x="571" d="M318.5 266q-26.5 9 -58.5 26q-26 13 -42 19t-34 6q-23 0 -42 -8t-39 -24l-62 84q32 36 70 58.5t78 22.5q34 0 58 -8.5t54 -25.5q25 -14 41.5 -20.5t37.5 -6.5q25 0 43 5t45 28l63 -78q-25 -36 -68.5 -61.5t-82.5 -25.5q-35 0 -61.5 9z" />
<glyph unicode="&#x221e;" horiz-adv-x="975" d="M113.5 169.5q-44.5 46.5 -44.5 127.5t49 130t132 49q46 0 87 -21.5t110 -70.5l41 -29l52 35q65 45 104.5 65.5t82.5 20.5q86 0 133 -47t47 -126q0 -81 -49.5 -130.5t-135.5 -49.5q-42 0 -80.5 19.5t-100.5 62.5l-58 40l-49 -34q-66 -47 -105 -67.5t-83 -20.5 q-88 0 -132.5 46.5zM304.5 236q27.5 14 72.5 45l26 18l-21 14q-48 33 -77.5 49t-56.5 16q-35 0 -56 -23t-21 -54q0 -34 21 -56.5t59 -22.5q26 0 53.5 14zM783 245q21 23 21 55q0 34 -22 56t-59 22q-26 0 -57.5 -16.5t-79.5 -49.5l-17 -11q24 -16 36 -23q41 -28 68.5 -42 t52.5 -14q36 0 57 23z" />
<glyph unicode="%" horiz-adv-x="844" d="M90 406.5q-49 41.5 -49 127.5q0 56 24 96.5t64.5 62t88.5 21.5q78 0 127.5 -41t49.5 -131q0 -55 -24.5 -95t-65.5 -61t-90 -21q-76 0 -125 41.5zM97 118l564 532l70 -73l-563 -532zM264 479.5q19 21.5 19 62.5q0 80 -65 80q-27 0 -45.5 -21t-18.5 -67q0 -40 15 -58 t46 -18q30 0 49 21.5zM496 31q-49 41 -49 127q0 56 24 96.5t64.5 62t88.5 21.5q77 0 127 -41t50 -131q0 -55 -24.5 -95t-65.5 -60.5t-90 -20.5q-76 0 -125 41zM670 104q19 21 19 62q0 80 -65 80q-27 0 -45.5 -21t-18.5 -67q0 -40 15 -57.5t46 -17.5q30 0 49 21z" />
<glyph unicode="&#x2030;" horiz-adv-x="1235" d="M90 406.5q-49 41.5 -49 127.5q0 56 24 96.5t64.5 62t88.5 21.5q78 0 127.5 -41t49.5 -131q0 -55 -24.5 -95t-65.5 -61t-90 -21q-76 0 -125 41.5zM97 118l564 532l70 -73l-563 -532zM264 479.5q19 21.5 19 62.5q0 80 -65 80q-27 0 -45.5 -21t-18.5 -67q0 -40 15 -58 t46 -18q30 0 49 21.5zM496 31q-49 41 -49 127q0 56 24 96.5t64.5 62t88.5 21.5q77 0 127 -41t50 -131q0 -55 -24.5 -95t-65.5 -60.5t-90 -20.5q-76 0 -125 41zM887.5 31q-48.5 41 -48.5 127q0 56 24 96.5t64 62t88 21.5q78 0 127.5 -41t49.5 -131q0 -55 -24.5 -95 t-65.5 -60.5t-90 -20.5q-76 0 -124.5 41zM670 104q19 21 19 62q0 80 -65 80q-27 0 -45.5 -21t-18.5 -67q0 -40 15 -57.5t46 -17.5q30 0 49 21zM1061.5 104q18.5 21 18.5 62q0 80 -65 80q-27 0 -45.5 -21t-18.5 -67q0 -40 15 -57.5t46 -17.5t49.5 21z" />
<glyph unicode="&#x2191;" horiz-adv-x="745" d="M312 -31v444l-130 -128l-77 77l269 268l266 -263l-80 -81l-124 122v-440z" />
<glyph unicode="&#x2197;" horiz-adv-x="745" d="M117 96l314 313l-182 -1v111h379v-375h-113v175l-310 -311z" />
<glyph unicode="&#x2198;" horiz-adv-x="745" d="M254 140h174l-311 311l88 87l314 -314l-1 182h110v-379h-374v113z" />
<glyph unicode="&#x2193;" horiz-adv-x="745" d="M105 195l80 80l125 -122v441l123 -1v-444l130 128l77 -78l-269 -267z" />
<glyph unicode="&#x2199;" horiz-adv-x="745" d="M117 411h113v-174l311 310l87 -87l-313 -314h182v-109h-380v374z" />
<glyph unicode="&#x2196;" horiz-adv-x="745" d="M226 330l1 -182h-110v380h374v-113h-174l311 -311l-88 -88z" />
<glyph unicode="&#x25ca;" horiz-adv-x="613" d="M22 355l205 352h167l194 -354l-204 -353h-167zM437 352l-128 251l-135 -247l128 -251z" />
<glyph unicode="&#x25a0;" horiz-adv-x="926" d="M110 707h706v-707h-706v707z" />
<glyph unicode="&#x25a1;" horiz-adv-x="800" d="M60 694h680v-681h-680v681zM627 127v453h-454v-453h454z" />
<glyph unicode="&#x25b6;" horiz-adv-x="665" d="M110 616l535 -335l-535 -335v670z" />
<glyph unicode="&#x25c0;" horiz-adv-x="665" d="M20 281l535 335v-670z" />
<glyph unicode="&#x25ba;" horiz-adv-x="1013" d="M110 608l903 -335l-903 -335v670z" />
<glyph unicode="&#x25c4;" horiz-adv-x="1013" d="M0 272l903 336v-670z" />
<glyph unicode="&#x25b8;" horiz-adv-x="465" d="M110 608l334 -335l-334 -335v670z" />
<glyph unicode="&#x25c2;" horiz-adv-x="464" d="M20 274l334 334v-670z" />
<glyph unicode="&#x2610;" horiz-adv-x="800" d="M60 694h680v-681h-680v681zM661 93v521h-522v-521h522z" />
<glyph unicode="&#x2611;" horiz-adv-x="800" d="M60 694h680v-681h-680v681zM661 93v521h-522v-521h522zM241.5 205.5q-18.5 43.5 -30 89t-9.5 58.5q9 12 24 25.5t25 16.5l22 -7q2 -94 33 -152q26 30 61 81.5t96 144.5l41 63q9 14 43.5 28t59.5 16l8 -9q-87 -128 -159 -225t-157 -187h-21q-18 14 -36.5 57.5z" />
<glyph unicode="&#x261a;" horiz-adv-x="765" d="M306.5 75.5q-21.5 20.5 -21.5 51.5q0 9 3 18q-21 7 -34 26t-13 41q0 14 8 32q-15 17 -15 42q0 11 6 27h-116q-35 0 -54.5 21t-19.5 50q0 30 21.5 52.5t60.5 22.5h263l-45 42q-30 29 -30 59q0 43 59 100l237 -190h98l1 -373h-67q-8 0 -15 -4t-18 -13q-17 -13 -29.5 -19 t-30.5 -6h-188q-39 0 -60.5 20.5z" />
<glyph unicode="&#x261b;" horiz-adv-x="765" d="M179.5 61q-12.5 6 -29.5 19q-11 9 -18 13t-15 4h-67l1 373h98l237 190q59 -57 59 -100q0 -30 -30 -59l-45 -42h263q39 0 60.5 -22.5t21.5 -52.5q0 -29 -19.5 -50t-54.5 -21h-116q6 -16 6 -27q0 -24 -15 -42q8 -18 8 -32q0 -22 -13 -41t-34 -26q3 -9 3 -18 q0 -31 -21.5 -51.5t-60.5 -20.5h-188q-18 0 -30.5 6z" />
<glyph unicode="&#x261c;" horiz-adv-x="765" d="M306.5 75.5q-21.5 20.5 -21.5 51.5q0 9 3 18q-21 7 -34 26t-13 41q0 14 8 32q-15 17 -15 42q0 11 6 27h-116q-35 0 -54.5 21t-19.5 50q0 30 21.5 52.5t60.5 22.5h263l-45 42q-30 29 -30 59q0 43 59 100l237 -190h98v-38h-112l-222 178q-20 -20 -20 -43q0 -29 29 -53 l108 -93h-365q-21 0 -32.5 -10.5t-11.5 -25.5q0 -14 9.5 -24t26.5 -10h334v-38h-178q-1 -2 -4.5 -8t-3.5 -14q0 -9 7 -17.5t22 -8.5h157v-38h-175q-5 -6 -5 -22q0 -26 47 -26h133v-38h-131q-4 -4 -4 -16q0 -14 14 -23t30 -9h188q12 0 21 5t21 15q14 11 25 16.5t26 5.5h67 v-38h-67q-8 0 -15 -4t-18 -13q-17 -13 -29.5 -19t-30.5 -6h-188q-39 0 -60.5 20.5z" />
<glyph unicode="&#x261d;" horiz-adv-x="705" d="M92 92q0 8 -4 15t-13 18q-13 17 -19 29.5t-6 30.5v188q0 39 20.5 60.5t51.5 21.5q9 0 18 -3q7 21 26 34t41 13q14 0 32 -8q18 15 42 15q11 0 27 -6v116q0 35 21 54.5t50 19.5q30 0 52.5 -21.5t22.5 -60.5v-263l42 45q29 30 59 30q43 0 100 -59l-190 -237v-124h-38v138 l178 222q-20 20 -43 20q-29 0 -53 -29l-93 -108v365q0 21 -10.5 32.5t-25.5 11.5q-14 0 -24 -9.5t-10 -26.5v-334h-38v178q-2 1 -8 4.5t-14 3.5q-9 0 -17.5 -7t-8.5 -22v-157h-38v175q-6 5 -22 5q-26 0 -26 -47v-133h-38v130q-4 5 -16 5q-14 0 -23 -14t-9 -30v-188 q0 -12 5 -21t15 -21q11 -14 16.5 -25t5.5 -26v-93h-38v93z" />
<glyph unicode="&#x261e;" horiz-adv-x="765" d="M179.5 61q-12.5 6 -29.5 19q-11 9 -18 13t-15 4h-67v38h67q15 0 26 -5.5t25 -16.5q12 -10 21 -15t21 -5h188q16 0 30 9t14 23q0 12 -5 16h-130v38h133q47 0 47 26q0 16 -5 22h-175v38h157q15 0 22 8.5t7 17.5q0 8 -3.5 14t-4.5 8h-178v38h334q17 0 26.5 10t9.5 24 q0 15 -11.5 25.5t-32.5 10.5h-365l108 93q29 24 29 53q0 23 -20 43l-222 -178h-112v38h98l237 190q59 -57 59 -100q0 -30 -30 -59l-45 -42h263q39 0 60.5 -22.5t21.5 -52.5q0 -29 -19.5 -50t-54.5 -21h-116q6 -16 6 -27q0 -24 -15 -42q8 -18 8 -32q0 -22 -13 -41t-34 -26 q3 -9 3 -18q0 -31 -21.5 -51.5t-60.5 -20.5h-188q-18 0 -30.5 6z" />
<glyph unicode="&#x261f;" horiz-adv-x="705" d="M92 92q0 8 -4 15t-13 18q-13 17 -19 29.5t-6 30.5v188q0 39 20.5 60.5t51.5 21.5q9 0 18 -3q20 33 58 33q7 0 12.5 -2t11.5 -5v153q0 28 22.5 47.5t47.5 19.5q26 0 45.5 -19t19.5 -44v-156q2 1 11.5 3.5t20.5 2.5q29 0 47 -21t18 -61v-58l42 45q13 14 31.5 21t35.5 7 q22 0 42 -13t50 -44l-190 -237v-124h-38v138l178 222q-20 20 -43 20q-29 0 -53 -29l-93 -108v160q0 44 -28 44q-14 0 -23 -9.5t-9 -26.5v-129h-38v337q0 17 -9 27.5t-21 10.5t-20 -10.5t-8 -27.5v-337h-38v161q-6 5 -22 5q-14 0 -20 -6t-6 -27v-133h-38v130q-4 5 -16 5 q-15 0 -23.5 -13.5t-8.5 -30.5v-188q0 -12 5 -21t15 -21q11 -14 16.5 -25t5.5 -26v-93h-38v93z" />
<glyph unicode="&#x2713;" horiz-adv-x="683" d="M241.5 205.5q-18.5 43.5 -30 89t-9.5 58.5q9 12 24 25.5t25 16.5l22 -7q2 -94 33 -152q26 30 61 81.5t96 144.5l41 63q9 14 43.5 28t59.5 16l8 -9q-87 -128 -159 -225t-157 -187h-21q-18 14 -36.5 57.5z" />
<glyph unicode="&#xf8ff;" horiz-adv-x="1241" d="M630 408h11v-20h20v-10h10v-40h-11v39h-19v-39h-11v70zM250 387h-10v11h11v-10h10v-11h-11v10zM290 388h10v10h11v-11h-10v-10h-11v11zM350 347h-10v30h-10v11h10v10h11v-10h20v-11h-20v-29h20v-10h-21v9zM590 347h-10v30h-10v11h10v10h11v-10h20v-11h-20v-29h20v-10h-21 v9zM940 387h-10v11h11v-10h10v-11h-11v10zM980 388h10v10h11v-11h-10v-10h-11v11zM160 388h11v-11h-11v11zM200 388h11v-11h-11v11zM390 329h10v18h-10v41h11v-40h19v40h11v-41h-10v-9h-10v-10h-10v-10h-11v11zM450 388h31v-10h10v-31h-10v-9h-20v-20h-11v70zM520 347h-10 v31h10v10h21v-10h10v-31h-10v-9h-21v9zM700 347h-10v31h10v10h21v-10h10v-21h-30v-9h30v-10h-31v9zM780 338h-20v9h-10v31h10v10h31v-70h-11v20zM820 347h-10v41h11v-40h19v40h11v-50h-31v9zM880 347h-10v31h10v10h21v-10h10v-21h-30v-9h30v-10h-31v9zM1030 388h11v-11h-11 v11zM1070 388h11v-11h-11v11zM110 357h-10v11h10v10h11v-10h10v-11h-10v-10h-11v10zM180 357h-10v11h10v10h11v-10h10v-11h-10v-10h-11v10zM270 357h-10v11h10v10h11v-10h10v-11h-10v-10h-11v10zM960 357h-10v11h10v10h11v-10h10v-11h-10v-10h-11v10zM1050 357h-10v11h10v10 h11v-10h10v-11h-10v-10h-11v10zM1120 357h-10v11h10v10h11v-10h10v-11h-10v-10h-11v10zM480 348v29h-19v-29h19zM540 348v29h-19v-29h19zM720 368v9h-19v-9h19zM780 348v29h-19v-29h19zM900 368v9h-19v-9h19zM160 348h11v-10h-11v10zM200 348h11v-10h-11v10zM240 338h10v10 h11v-10h-10v-10h-11v10zM300 338h-10v10h11v-10h10v-10h-11v10zM930 338h10v10h11v-10h-10v-10h-11v10zM990 338h-10v10h11v-10h10v-10h-11v10zM1030 348h11v-10h-11v10zM1070 348h11v-10h-11v10z" />
<glyph unicode="@" horiz-adv-x="815" d="M138 11q-90 84 -90 256q0 150 59 251t158 150t222 49q135 0 210.5 -73t75.5 -222q0 -89 -32 -153.5t-87 -98t-122 -33.5q-41 0 -66 19t-27 45q-15 -21 -43.5 -38t-51.5 -17q-55 0 -83.5 30t-28.5 106q0 61 25 109.5t71.5 76.5t108.5 28q33 0 63 -5t67 -20l-24 -201 l-1 -12q0 -28 22 -28q20 0 45 22t43 65.5t18 105.5q0 104 -50.5 155t-139.5 51q-93 0 -166.5 -37.5t-117 -117t-43.5 -201.5q0 -128 64.5 -190t177.5 -62q36 0 81 5t83 13l14 -85q-55 -17 -93.5 -22t-93.5 -5q-158 0 -248 84zM404.5 247.5q11.5 5.5 20 12t11.5 8.5l19 146 l-17 1q-42 0 -66.5 -33.5t-24.5 -88.5q0 -24 6 -37.5t22 -13.5q18 0 29.5 5.5z" />
<glyph unicode="&#x26;" horiz-adv-x="706" d="M97 33q-60 44 -60 137q0 115 141 201q-24 44 -36 82t-12 79q0 42 22 84t67.5 70t110.5 28q89 0 133 -46.5t44 -112.5q0 -68 -50.5 -115.5t-142.5 -90.5q59 -99 166 -166t223 -84l-15 -105q-64 4 -128 23t-120 49q-41 -37 -86.5 -57t-105.5 -20q-91 0 -151 44z M358.5 481.5q34.5 31.5 34.5 63.5t-19.5 51.5t-51.5 19.5q-33 0 -55 -21t-22 -57q0 -55 28 -113q51 25 85.5 56.5zM361 123q-86 65 -139 159q-28 -20 -44 -47t-16 -58q0 -43 28 -65.5t70 -22.5q56 0 101 34z" />
<glyph unicode="&#xb6;" horiz-adv-x="614" d="M78.5 303.5q-51.5 60.5 -51.5 174.5q0 90 33 140.5t89 69t136 19.5h59v-464h-114q-100 0 -151.5 60.5zM227 -207l24 112q48 -12 81 -12q42 0 59 23t17 78v713h133v-714q0 -116 -57.5 -166.5t-153.5 -50.5q-55 0 -103 17z" />
<glyph unicode="&#xa7;" horiz-adv-x="534" d="M48.5 -208.5q-33.5 10.5 -55.5 29.5l36 98q4 -3 17 -11t32 -15.5t35 -7.5q22 0 31.5 24.5t9.5 52.5q0 39 -14 113l-67 316q-10 53 -10 98q0 81 43 142.5t115.5 95.5t158.5 34q43 0 86 -13t76 -42l-56 -86q-19 16 -47.5 27.5t-56.5 11.5q-25 0 -35.5 -16.5t-10.5 -41.5 q0 -29 9 -79l69 -306q20 -103 20 -168q0 -75 -43.5 -136t-116.5 -96t-159 -35q-33 0 -66.5 10.5zM320 37q0 40 -11 100l-72 340q-8 42 -8 88q0 43 9 78q-33 -24 -46 -65t-13 -82t8 -81l72 -342q9 -52 9 -84q0 -21 -3 -37.5t-7.5 -33.5t-6.5 -23q69 62 69 142z" />
<glyph unicode="&#xa9;" horiz-adv-x="831" d="M221.5 33q-77.5 45 -118.5 126.5t-41 189.5q0 110 45.5 190.5t128 123t190.5 42.5q111 0 188 -45.5t116 -126.5t39 -186q0 -109 -43.5 -190t-125 -125t-193.5 -44q-108 0 -185.5 45zM565.5 90.5q63.5 38.5 95 105t31.5 152.5q0 85 -32.5 151.5t-94.5 104t-148 37.5 q-89 0 -151.5 -37.5t-94.5 -103t-32 -150.5q0 -83 31 -150.5t92.5 -107.5t148.5 -40q91 0 154.5 38.5zM325.5 173q-46.5 26 -70.5 71.5t-24 102.5q0 93 53.5 148.5t148.5 55.5q80 0 125 -28l-25 -68q-27 10 -48.5 13.5t-50.5 3.5q-52 0 -84.5 -30t-32.5 -90t35.5 -91 t91.5 -31q30 0 49.5 2.5t43.5 11.5l23 -73q-32 -13 -59 -18.5t-66 -5.5q-63 0 -109.5 26z" />
<glyph unicode="&#xae;" horiz-adv-x="559" d="M166.5 328.5q-55.5 22.5 -92 73t-36.5 129.5q0 71 32 123.5t87 79.5t123 27q62 0 116.5 -23.5t89 -75t34.5 -131.5q0 -70 -31.5 -121t-86 -77.5t-121.5 -26.5q-59 0 -114.5 22.5zM417 399.5q51 47.5 51 131.5q0 61 -26 102.5t-69 61.5t-92 20q-83 0 -137 -45t-54 -135 q0 -72 33 -113t77.5 -55.5t85.5 -14.5q80 0 131 47.5zM357.5 415.5q-17.5 5.5 -33.5 19.5q-12 10 -20.5 23t-16 27.5t-10.5 20.5h-18h-13v-91h-62v252l100 1q43 0 69 -21t26 -61q0 -22 -10.5 -40t-31.5 -29q20 -33 32 -45q9 -9 22.5 -15t16.5 -8l-7 -40q-26 1 -43.5 6.5z M277 542q24 0 34 11.5t10 32.5t-9 31t-32 10h-34v-85h31z" />
<glyph unicode="&#x2122;" horiz-adv-x="834" d="M135 628h-111v80h313v-80h-111v-275h-91v275zM359 708h105l101 -259l105 259h101v-355h-90l2 192l-76 -192h-91l-68 189l1 -189h-90v355z" />
<glyph unicode="&#xb0;" horiz-adv-x="400" d="M81.5 444q-41.5 41 -41.5 117q0 47 21.5 82.5t58 54.5t81.5 19q72 0 116 -42t44 -114t-46 -115t-117 -43q-75 0 -116.5 41zM261 561q0 35 -16.5 53.5t-44.5 18.5q-29 0 -45 -18t-16 -54q0 -37 16 -55.5t45 -18.5q61 0 61 74z" />
<glyph unicode="|" horiz-adv-x="273" d="M77 754h119v-974h-119v974z" />
<glyph unicode="&#x2020;" horiz-adv-x="533" d="M206 482l-169 -8v121l168 -8l-9 167h141l-9 -167l168 8v-121l-169 8l9 -482h-138z" />
<glyph unicode="&#x2021;" horiz-adv-x="570" d="M224 166l-169 -7v121l169 -7v209l-169 -8v121l168 -8l-9 167h141l-9 -167l168 8v-121l-168 8v-209l168 7v-121l-168 7l8 -166h-138z" />
<glyph unicode="^" horiz-adv-x="544" d="M202 707h153l157 -413h-130l-105 313l-116 -313h-127z" />
<glyph unicode="&#x308;" d="M-407 716l79 80l79 -80l-79 -80zM-182 716l80 80l79 -80l-79 -80z" />
<glyph unicode="&#x307;" d="M-238 716l94 94l95 -94l-95 -95z" />
<glyph unicode="&#x300;" d="M-417 718l46 95l220 -125l-42 -81z" />
<glyph unicode="&#x301;" d="M-410 688l219 124l47 -94l-226 -110z" />
<glyph unicode="&#x30b;" d="M-574 670l188 166l68 -81l-198 -153zM-333 682l219 122l48 -93l-226 -108z" />
<glyph unicode="&#x302;" d="M-446 689l188 123l180 -122l-56 -75l-125 87l-129 -88z" />
<glyph unicode="&#x30c;" d="M-443 737l56 75l125 -87l129 87l58 -74l-189 -124z" />
<glyph unicode="&#x306;" d="M-368 658q-45 30 -70 71l69 60q59 -61 116 -61q61 0 111 61l66 -59q-26 -41 -71 -71.5t-110 -30.5q-66 0 -111 30z" />
<glyph unicode="&#x30a;" d="M-367 624q-39 27 -39 88q0 58 39.5 90t92.5 32q51 0 93 -28.5t42 -91.5q0 -57 -38 -87t-94 -30q-57 0 -96 27zM-228.5 671.5q16.5 15.5 16.5 41.5t-17.5 41.5t-43.5 15.5q-30 0 -45.5 -14t-15.5 -41t16.5 -43t44.5 -16t44.5 15.5z" />
<glyph unicode="&#x303;" d="M-248 643q-16 5 -36 15q-19 9 -31.5 13t-25.5 4q-20 0 -35 -5.5t-35 -21.5l-51 64q62 68 130 68q22 0 38 -5.5t38 -16.5q28 -16 47 -16q22 0 39 6.5t41 20.5l46 -63q-26 -27 -57 -47.5t-75 -20.5q-17 0 -33 5z" />
<glyph unicode="&#x304;" d="M-475 760h305v-105h-305v105z" />
<glyph unicode="&#x312;" d="M-168 831h94l-21 -213h-116z" />
<glyph unicode="&#x326;" d="M-272 -59h116l-43 -213h-94z" />
<glyph unicode="&#x327;" d="M-317 -188q36 23 53 37.5t17 35.5q0 13 -5 30.5t-11 33.5h109q21 -44 21 -76q0 -81 -138 -140z" />
<glyph unicode="&#x328;" d="M-320 -117q0 59 59 109t130 87l50 -65q-43 -23 -83 -59.5t-40 -68.5t44 -32q35 0 62 9l24 -88q-24 -11 -46.5 -16.5t-61.5 -5.5q-138 0 -138 130z" />
<glyph unicode="&#xb4;" horiz-adv-x="578" d="M165 688l219 124l47 -94l-226 -110z" />
<glyph unicode="&#x2d8;" horiz-adv-x="515" d="M147 658q-45 30 -70 71l69 60q59 -61 116 -61q61 0 111 61l66 -59q-26 -41 -71 -71.5t-110 -30.5q-66 0 -111 30z" />
<glyph unicode="&#x2c7;" horiz-adv-x="518" d="M75 737l56 75l125 -87l129 87l58 -74l-189 -124z" />
<glyph unicode="&#xb8;" horiz-adv-x="463" d="M146 -188q36 23 53 37.5t17 35.5q0 13 -5 30.5t-11 33.5h109q21 -44 21 -76q0 -81 -138 -140z" />
<glyph unicode="&#x2c6;" horiz-adv-x="521" d="M75 689l188 123l180 -122l-56 -75l-125 87l-129 -88z" />
<glyph unicode="&#xa8;" horiz-adv-x="423" d="M23 716l79 80l79 -80l-79 -80zM248 716l80 80l79 -80l-79 -80z" />
<glyph unicode="&#x2d9;" horiz-adv-x="287" d="M49 716l94 94l95 -94l-95 -95z" />
<glyph unicode="`" horiz-adv-x="578" d="M161 718l46 95l220 -125l-42 -81z" />
<glyph unicode="&#x2dd;" horiz-adv-x="629" d="M99 670l187 166l68 -81l-198 -153zM340 682l219 122l48 -93l-227 -108z" />
<glyph unicode="&#xaf;" horiz-adv-x="645" d="M170 760h305v-105h-305v105z" />
<glyph unicode="&#x2db;" horiz-adv-x="576" d="M268 -117q0 59 59 109t130 87l50 -65q-43 -23 -83 -59.5t-40 -68.5t44 -32q35 0 62 9l24 -88q-24 -11 -46.5 -16.5t-61.5 -5.5q-138 0 -138 130z" />
<glyph unicode="&#x2da;" horiz-adv-x="546" d="M179 624q-39 27 -39 88q0 58 39.5 90t92.5 32q51 0 93 -28.5t42 -91.5q0 -57 -38 -87t-94 -30q-57 0 -96 27zM316.5 671q15.5 15 17.5 42q0 26 -17.5 41.5t-43.5 15.5q-30 0 -45.5 -14t-15.5 -41t16.5 -43t44.5 -16t43.5 15z" />
<glyph unicode="&#x2dc;" horiz-adv-x="550" d="M297 643q-16 5 -36 15q-19 9 -31.5 13t-25.5 4q-20 0 -35 -5.5t-35 -21.5l-51 64q62 68 130 68q22 0 38 -5.5t38 -16.5q28 -16 47 -16q22 0 39 6.5t41 20.5l46 -63q-26 -27 -57 -47.5t-75 -20.5q-17 0 -33 5z" />
<glyph horiz-adv-x="694" d="M212 835l251 73l25 -106l-255 -57z" />
<glyph horiz-adv-x="593" d="M122 831l179 89l176 -88l-47 -87l-130 59l-131 -59z" />
<glyph horiz-adv-x="400" d="M10 825l83 84l84 -84l-84 -84zM235 825l84 84l83 -84l-83 -84z" />
<glyph horiz-adv-x="648" d="M185 800l25 107l252 -72l-21 -90z" />
<glyph horiz-adv-x="696" d="M377 760q-16 5 -37 15q-36 17 -55 17t-35 -5.5t-35 -20.5l-51 63q24 26 56.5 47t70.5 21q23 0 40 -6t38 -17q11 -6 22.5 -10.5t21.5 -4.5q23 0 38.5 6t39.5 20l46 -62q-24 -27 -54.5 -47.5t-72.5 -20.5q-17 0 -33 5z" />
</font>
</defs>
</svg>
