<?xml version="1.0" standalone="no"?>
<!DOCTYPE svg PUBLIC "-//W3C//DTD SVG 1.1//EN" "http://www.w3.org/Graphics/SVG/1.1/DTD/svg11.dtd" >
<svg xmlns="http://www.w3.org/2000/svg">
<metadata>Generated by IcoMoon</metadata>
<defs>
<font id="refaelicons" horiz-adv-x="1024">
<font-face units-per-em="1024" ascent="960" descent="-64" />
<missing-glyph horiz-adv-x="1024" />
<glyph unicode="&#x20;" horiz-adv-x="512" d="" />
<glyph unicode="&#xe900;" glyph-name="quote" horiz-adv-x="1227" d="M0 713.096v-246.904h181.929v-43.663c0-87.846-20.792-163.216-59.777-216.755-20.792-27.549-70.692-63.415-101.88-72.772l-20.272-6.238v-191.285l29.628 3.119c54.059 6.757 125.791 27.549 174.652 50.94 140.865 67.054 230.79 194.404 268.215 380.491 17.153 85.247 21.312 160.617 21.312 381.011v208.958h-493.807v-246.904zM732.914 713.096v-246.904h181.929v-51.98c0-137.226-44.703-224.552-138.266-271.334l-43.663-21.312v-93.044c0-73.291 1.559-92.524 6.757-92.524 24.95 0 112.796 19.752 153.86 34.307 171.533 60.816 277.052 200.122 318.116 418.956 10.396 53.539 11.436 81.088 13.515 314.997l2.599 255.74h-494.847v-246.904z" />
<glyph unicode="&#xe901;" glyph-name="pdf" horiz-adv-x="2475" d="M0 960h341.333c120.889 0 220.444-28.444 291.556-78.222s106.667-135.111 106.667-248.889c0-113.778-35.556-199.111-113.778-256-71.111-56.889-170.667-85.333-284.444-85.333h-128v-355.556h-213.333v1024zM334.222 462.222c135.111 0 199.111 56.889 199.111 170.667 0 56.889-14.222 92.444-49.778 113.778s-85.333 42.667-156.444 42.667h-113.778v-327.111h120.889zM888.889 960h284.444c163.556 0 284.444-42.667 376.889-128s135.111-213.333 135.111-376.889-42.667-298.667-135.111-384c-85.333-85.333-206.222-128-362.667-128h-298.667v1016.889zM1159.111 113.778c199.111 0 298.667 113.778 298.667 341.333 0 120.889-28.444 206.222-78.222 256s-128 78.222-220.444 78.222h-56.889v-675.556h56.889zM1841.778 960h632.889v-177.778h-419.556v-256h362.667v-177.778h-362.667v-405.333h-213.333v1016.889z" />
<glyph unicode="&#xe902;" glyph-name="search" horiz-adv-x="1023" d="M960.548-64c-0.069 0-0.152 0-0.234 0-17.374 0-33.104 7.043-44.489 18.43v0l-255.43 255.19v47.424l-16.208 16.809c-67.813-58.413-156.69-94.050-253.887-94.248h-0.042c-23.357 0.045-46.207 2.074-68.432 5.927l2.398-0.344c-168.415 30.405-298.094 164.883-320.938 333.302l-0.225 2.028c-1.989 14.801-3.125 31.91-3.125 49.285 0 215.5 174.698 390.198 390.198 390.198 0.043 0 0.087 0 0.13 0h-0.006c0.007 0 0.015 0 0.023 0 17.363 0 34.471-1.091 51.26-3.207l-1.999 0.206c193.343-24.99 341.184-188.598 341.184-386.737 0-97.449-35.761-186.545-94.876-254.882l0.417 0.493 16.809-16.208h47.424l254.529-255.73c11.577-11.453 18.747-27.341 18.747-44.904 0-34.878-28.274-63.152-63.152-63.152-0.112 0-0.223 0-0.334 0.001h0.017zM390.258 839.939c-149.193 0-270.137-120.945-270.137-270.137s120.945-270.137 270.137-270.137c149.193 0 270.137 120.945 270.137 270.137v0c-0.171 149.124-121.013 269.967-270.121 270.137h-0.016z" />
<glyph unicode="&#xe903;" glyph-name="lang" d="M511.488-64c-282.55 0.292-511.488 229.41-511.488 512 0 282.77 229.23 512 512 512s512-229.23 512-512v0c-0.175-282.808-229.476-512-512.307-512-0.072 0-0.145 0-0.217 0h0.012zM414.208 243.2c23.675-77.258 56.986-144.565 99.337-205.082l-1.545 2.33c40.831 58.183 74.145 125.494 96.434 197.645l1.358 5.107zM715.264 243.2c-17.753-69.293-41.941-129.942-72.748-186.464l2.092 4.192c94.877 33.287 171.873 97.515 220.649 180.35l1.047 1.922zM157.696 243.2c49.736-84.832 126.764-149.090 218.825-181.395l2.871-0.877c-28.644 52.314-52.827 112.957-69.416 176.665l-1.24 5.607zM735.232 550.4c4.163-30.414 6.737-65.909 7.113-101.932l0.004-0.468c-0.38-36.491-2.954-71.986-7.599-106.827l0.483 4.427h173.056c8.208 30.659 13.048 65.905 13.311 102.24l0.001 0.16c-0.263 36.495-5.104 71.742-13.974 105.351l0.662-2.951zM392.192 550.4c-4.855-30.511-7.82-65.949-8.189-102.010l-0.003-0.39c0.446-36.519 3.408-71.954 8.724-106.613l-0.532 4.213h239.616c4.813 30.473 7.776 65.909 8.188 101.959l0.004 0.441c-0.372 36.451-3.337 71.889-8.72 106.528l0.528-4.128zM115.712 550.4c-8.459-30.719-13.32-65.992-13.32-102.4s4.861-71.681 13.969-105.204l-0.649 2.804h173.056c-4.25 30.478-6.845 65.974-7.165 102.012l-0.003 0.388c0.266 36.366 2.863 71.864 7.648 106.664l-0.48-4.264zM644.608 835.072c28.569-52.298 52.747-112.933 69.399-176.613l1.257-5.659h151.040c-49.76 84.811-126.779 149.060-218.823 181.393l-2.873 0.879zM512 855.552c-40.827-58.184-74.14-125.495-96.433-197.644l-1.359-5.108h195.584c-23.635 77.258-56.949 144.57-99.329 205.067l1.537-2.315zM379.392 835.072c-94.95-33.148-171.988-97.416-220.652-180.347l-1.044-1.925h151.040c17.773 69.299 41.96 129.946 72.752 186.477l-2.096-4.205z" />
<glyph unicode="&#xe904;" glyph-name="file" horiz-adv-x="783" d="M685.176-64h-587.776c-54.123 1.497-97.427 45.729-97.427 100.075 0 0.818 0.010 1.633 0.029 2.446l-0.002-0.121v819.2c-0.014 0.627-0.022 1.366-0.022 2.107 0 54.556 43.548 98.941 97.779 100.29l0.125 0.002h350.871c27.385-0.041 52.064-11.59 69.466-30.069l0.045-0.048 235.881-247.266c17.875-18.589 28.884-43.893 28.884-71.769 0-0.181 0-0.361-0.001-0.541v0.028-571.934c0.014-0.627 0.022-1.367 0.022-2.108 0-54.546-43.531-98.924-97.748-100.289l-0.127-0.003zM244.736 243.2c-28.277 0-51.2-22.923-51.2-51.2s22.923-51.2 51.2-51.2h293.617c28.277 0 51.2 22.923 51.2 51.2s-22.923 51.2-51.2 51.2v0zM244.736 448c-28.277 0-51.2-22.923-51.2-51.2s22.923-51.2 51.2-51.2h293.617c28.277 0 51.2 22.923 51.2 51.2s-22.923 51.2-51.2 51.2v0zM440.501 883.17v-230.37c-0.007-0.318-0.011-0.693-0.011-1.068 0-27.275 21.776-49.464 48.891-50.13l0.062-0.001h220.22z" />
<glyph unicode="&#xe905;" glyph-name="download" horiz-adv-x="843" d="M698.127 598.588h-95.774v301.176c0 33.267-26.968 60.235-60.235 60.235v0h-240.941c-33.267 0-60.235-26.968-60.235-60.235v0-301.176h-96.015c-0.104 0.001-0.227 0.001-0.35 0.001-33.267 0-60.235-26.968-60.235-60.235 0-16.721 6.813-31.85 17.815-42.764l276.484-276.484c10.888-10.825 25.895-17.516 42.466-17.516s31.578 6.691 42.469 17.519l276.477 276.477c11.006 10.918 17.82 26.048 17.82 42.769 0 33.094-26.689 59.955-59.717 60.233h-0.026zM0-3.765c0-33.267 26.968-60.235 60.235-60.235v0h722.824c33.267 0 60.235 26.968 60.235 60.235s-26.968 60.235-60.235 60.235v0h-722.824c-33.267 0-60.235-26.968-60.235-60.235v0z" />
<glyph unicode="&#xe906;" glyph-name="chev_down" horiz-adv-x="1902" d="M68.754 806.693l868.059-862.939 858.697 863.086-167.936 166.181-690.761-684.763-703.634 684.763z" />
<glyph unicode="&#xe907;" glyph-name="arrow_left" horiz-adv-x="1855" d="M1854.578 504.889h-1598.578l352.711 358.4-102.4 96.711-506.311-512 506.311-506.311 102.4 96.711-347.022 352.711h1592.889z" />
<glyph unicode="&#xe908;" glyph-name="arrow_right" horiz-adv-x="1855" d="M0 396.8h1598.578l-352.711-358.4 102.4-96.711 506.311 512-506.311 506.311-102.4-96.711 347.022-352.711h-1592.889z" />
<glyph unicode="&#xe909;" glyph-name="arrow_up" horiz-adv-x="878" d="M877.861 529.335l-439.15 436.517-434.42-436.517 84.992-84.163 349.428 346.453 356.059-346.453zM487.619-39.619h-97.524v877.714h97.524z" />
<glyph unicode="&#xe90a;" glyph-name="check" horiz-adv-x="1229" d="M578.765-20.173c-19.186 1.061-37.139 3.691-54.525 7.789l2.097-0.417c-18.739 4.096-72.806 46.285-87.757 61.030l-371.712 371.814c-6.872 6.921-11.119 16.456-11.119 26.982s4.247 20.062 11.122 26.985l146.737 146.635c6.915 6.842 16.43 11.069 26.931 11.069s20.016-4.227 26.935-11.072l259.683-259.581c6.121-6.361 14.707-10.313 24.216-10.313 10.838 0 20.477 5.134 26.619 13.102l0.058 0.078 420.864 526.131c7.078 8.73 17.801 14.264 29.818 14.264 9.048 0 17.362-3.137 23.916-8.384l-0.076 0.059 161.894-129.536c16.384-13.107 19.149-37.274 6.042-53.76l-520.090-649.728c-13.107-16.384-36.454-41.472-51.814-55.808 0 0-26.931-24.883-67.277-27.034z" />
<glyph unicode="&#xe90b;" glyph-name="check_2" horiz-adv-x="1424" d="M543.826-58.962l-543.826 543.826 129.048 129.048 414.779-405.563 746.602 746.59 129.048-129.024z" />
<glyph unicode="&#xe90c;" glyph-name="chev_left" horiz-adv-x="626" d="M530.944 960.171l-509.326-512.341 509.326-506.823 98.133 99.157-404.196 407.666 404.196 415.403z" />
<glyph unicode="&#xe90d;" glyph-name="chev_right" horiz-adv-x="626" d="M94.834-52.452l509.326 512.284-509.326 506.823-98.133-99.157 404.196-407.666-404.196-415.403z" />
<glyph unicode="&#xe90e;" glyph-name="email" horiz-adv-x="1385" d="M162.635-64c-78.306 0-144.565 66.259-144.565 144.565v813.176c0 18.071 12.047 30.118 30.118 30.118s30.118-12.047 30.118-30.118v-813.176c0-48.188 36.141-84.329 84.329-84.329h1042.071c48.188 0 84.329 36.141 84.329 84.329v813.176c0 18.071 12.047 30.118 30.118 30.118s30.118-12.047 30.118-30.118v-813.176c0-78.306-66.259-144.565-144.565-144.565h-1042.071zM686.682 303.435c-30.118 0-66.259 12.047-90.353 30.118l-572.235 536.094c-6.024 6.024-12.047 24.094-6.024 30.118 6.024 12.047 18.071 18.071 30.118 18.071h1270.965c12.047 0 24.094-6.024 30.118-18.071s0-24.094-6.024-30.118l-566.212-536.094c-30.118-18.071-60.235-30.118-90.353-30.118zM126.494 863.624l512-481.882c24.094-24.094 66.259-24.094 96.376 0l512 481.882h-1120.376zM1325.176 863.624h-1270.965c-18.071 0-30.118 12.047-30.118 30.118s12.047 30.118 30.118 30.118h1270.965c18.071 0 30.118-12.047 30.118-30.118s-18.071-30.118-30.118-30.118z" />
<glyph unicode="&#xe90f;" glyph-name="email_fill" horiz-adv-x="1195" d="M573.611 445.212c7.168 0 14.336-7.168 28.672-7.168 7.168 0 21.504 7.168 21.504 7.168l537.031 379.506c-21.447 50.119-71.623 93.184-136.021 93.184h-859.307c-57.287 0-114.574-35.84-136.078-93.127zM702.578 323.47c-7.225-7.168-50.176-35.84-107.463-35.84s-100.238 28.672-107.406 35.84l-472.633 329.387v-529.863c0.226-79.022 64.225-143.020 143.225-143.246h859.329c78.997 0.258 142.964 64.244 143.189 143.224v529.828z" />
<glyph unicode="&#xe910;" glyph-name="facebook" horiz-adv-x="488" d="M328.85 782.946c12.776 12.337 35.84 18.53 69.193 18.53 14.629 0 25.698-0.244 33.207-0.731 7.558-0.488 14.775-1.122 21.602-2.048v145.944c-13.931 2.332-32.166 4.527-50.599 6.026l-2.552 0.167c-17.506 1.365-34.28 2.048-50.274 2.048-68.072 0-120.393-15.994-156.916-47.982-36.571-31.988-54.808-77.629-54.808-137.021v-113.762h-102.839v-141.848h102.79v-557.154h176.762v557.154h134.339v141.897h-139.118v58.856c0 34.231 6.388 57.539 19.212 69.876z" />
<glyph unicode="&#xe911;" glyph-name="facebook_square" d="M678.028 656.244h-79.872c-25.553 0-44.684-10.473-44.684-36.911v-46.080h124.556l-9.868-124.602h-114.735v-332.148h-124.509v332.148h-83.084v124.556h83.037v79.872c0 83.921 44.172 127.721 143.686 127.721h105.425zM802.583 946.874h-581.26c-114.65 0-207.593-92.942-207.593-207.593v0-581.26c0-114.65 92.942-207.593 207.593-207.593v0h581.26c114.65 0 207.593 92.942 207.593 207.593v0 581.26c0 114.65-92.942 207.593-207.593 207.593v0z" />
<glyph unicode="&#xe912;" glyph-name="fax" horiz-adv-x="1067" d="M972.8 204.8h-166.4c-12.8 0-21.333 8.533-21.333 21.333s8.533 21.333 21.333 21.333h166.4c12.8 0 21.333 8.533 21.333 21.333v302.933c0 12.8-4.267 25.6-8.533 34.133l-64 93.867h-763.733l-64-93.867c-8.533-8.533-8.533-21.333-8.533-34.133v-302.933c0-12.8 8.533-21.333 21.333-21.333h166.4c12.8 0 21.333-8.533 21.333-21.333s-8.533-21.333-21.333-21.333h-166.4c-34.133 0-64 29.867-64 64v302.933c0 21.333 4.267 42.667 17.067 59.733l68.267 102.4c4.267 4.267 8.533 8.533 17.067 8.533h785.067c8.533 0 12.8-4.267 17.067-8.533l68.267-102.4c12.8-17.067 17.067-38.4 17.067-59.733v-302.933c0-34.133-25.6-64-59.733-64zM806.4 699.733h-537.6c-12.8 0-21.333 8.533-21.333 21.333v204.8c0 12.8 8.533 21.333 21.333 21.333h537.6c12.8 0 21.333-8.533 21.333-21.333v-204.8c0-12.8-8.533-21.333-21.333-21.333zM290.133 742.4h494.933v162.133h-494.933v-162.133zM806.4-42.667h-537.6c-12.8 0-21.333 8.533-21.333 21.333v371.2c0 12.8 8.533 21.333 21.333 21.333h537.6c12.8 0 21.333-8.533 21.333-21.333v-371.2c0-12.8-8.533-21.333-21.333-21.333zM290.133 0h494.933v328.533h-494.933v-328.533zM682.667 204.8h-290.133c-12.8 0-21.333 8.533-21.333 21.333s8.533 21.333 21.333 21.333h290.133c12.8 0 21.333-8.533 21.333-21.333s-12.8-21.333-21.333-21.333zM597.333 81.067h-204.8c-12.8 0-21.333 8.533-21.333 21.333s8.533 21.333 21.333 21.333h204.8c12.8 0 21.333-8.533 21.333-21.333s-8.533-21.333-21.333-21.333zM806.4 554.667c0-23.564-19.103-42.667-42.667-42.667s-42.667 19.103-42.667 42.667c0 23.564 19.103 42.667 42.667 42.667s42.667-19.103 42.667-42.667zM930.133 554.667c0-23.564-19.103-42.667-42.667-42.667s-42.667 19.103-42.667 42.667c0 23.564 19.103 42.667 42.667 42.667s42.667-19.103 42.667-42.667zM887.467 328.533h-704c-12.8 0-21.333 8.533-21.333 21.333s8.533 21.333 21.333 21.333h704c12.8 0 21.333-8.533 21.333-21.333s-8.533-21.333-21.333-21.333z" />
<glyph unicode="&#xe913;" glyph-name="home" horiz-adv-x="1205" d="M481.882-64v361.412h240.941v-361.412h301.176v481.882h180.706l-602.353 542.118-602.353-542.118h180.706v-481.882z" />
<glyph unicode="&#xe914;" glyph-name="linkedin" horiz-adv-x="1084" d="M884.013 167.063h-126.133v235.64c0 141.553-168.177 130.891-168.177 0v-235.64h-126.193v462.487h126.193v-74.21c58.669 108.785 294.31 116.796 294.31-104.087zM316.356 682.918c-40.663 0.205-73.548 33.216-73.548 73.908 0 0.064 0 0.128 0 0.192v-0.010c0 40.96 32.949 74.15 73.547 74.15 40.659 0 73.608-33.19 73.608-74.15s-32.949-74.089-73.608-74.089zM379.482 167.063h-126.193v462.487h126.193zM842.089 965.963h-588.86c-116.102 0-210.221-94.119-210.221-210.221v0-588.68c0-116.102 94.119-210.221 210.221-210.221v0h588.68c116.102 0 210.221 94.119 210.221 210.221v0 588.68c0 116.102-94.119 210.221-210.221 210.221v0z" />
<glyph unicode="&#xe915;" glyph-name="phone" d="M905.846-48.246v0c-7.877 0-19.692 0-31.508 3.938-204.8 31.508-409.6 137.846-563.2 291.446s-256 350.523-295.385 563.2c-3.938 19.692-7.877 47.262 7.877 70.892 7.877 11.815 15.754 19.692 31.508 23.631l153.6 35.446c31.508 7.877 63.015-15.754 74.831-51.2v-3.938c15.754-51.2 27.569-94.523 51.2-141.785 15.754-31.508 3.938-70.892-23.631-86.646l-35.446-19.692c-7.877-3.938-11.815-11.815-15.754-19.692-7.877-31.508 98.462-165.415 177.231-244.185 63.015-63.015 192.985-169.354 236.308-169.354 11.815 3.938 19.692 7.877 23.631 15.754l19.692 35.446c15.754 27.569 55.138 35.446 86.646 19.692s78.769-35.446 118.154-51.2c51.2-19.692 59.077-23.631 63.015-27.569 15.754-15.754 23.631-35.446 19.692-55.138l-35.446-153.6c-3.938-11.815-11.815-23.631-23.631-31.508-11.815-3.938-23.631-3.938-39.385-3.938zM220.554 900.923l-157.538-35.446c0 0-3.938 0-3.938-3.938-3.938-7.877-3.938-23.631 0-43.323 35.446-208.738 133.908-393.846 283.569-543.508s346.585-252.062 543.508-279.631c19.692-3.938 35.446-3.938 43.323 0 3.938 0 3.938 3.938 3.938 3.938l35.446 153.6c0 7.877 0 11.815-7.877 19.692 0 0-27.569 11.815-51.2 19.692-39.385 15.754-90.585 35.446-122.092 51.2-11.815 7.877-27.569 3.938-35.446-7.877l-19.692-35.446c-11.815-15.754-27.569-31.508-47.262-35.446-3.938 0-7.877 0-11.815 0-78.769 0-259.938 181.169-263.877 181.169-7.877 7.877-204.8 204.8-189.046 279.631 3.938 19.692 15.754 35.446 35.446 47.262l35.446 19.692c7.877 3.938 11.815 19.692 7.877 35.446-23.631 47.262-39.385 94.523-55.138 145.723v3.938c-3.938 11.815-15.754 23.631-23.631 23.631zM811.323 467.692c-11.815 0-19.692 7.877-19.692 19.692 0 157.538-126.031 283.569-283.569 283.569-11.815 0-19.692 7.877-19.692 19.692s7.877 19.692 19.692 19.692v0c177.231 0 322.954-145.723 322.954-322.954 0-7.877-7.877-19.692-19.692-19.692zM941.292 467.692c-11.815 0-19.692 7.877-19.692 19.692 0 228.431-185.108 413.538-413.538 413.538-11.815 0-19.692 7.877-19.692 19.692s7.877 19.692 19.692 19.692c248.123 0 452.923-200.862 452.923-452.923 0-7.877-7.877-19.692-19.692-19.692z" />
<glyph unicode="&#xe916;" glyph-name="pin" horiz-adv-x="783" d="M391.649-64c-16.319 0-32.637 4.080-44.876 16.319 0 0-4.080 4.080-4.080 4.080-101.992 110.151-346.773 395.729-342.693 616.032 4.080 212.143 179.506 387.57 391.649 387.57 0 0 4.080 0 4.080 0 212.143-4.080 383.49-175.426 387.57-387.57 0-220.303-240.701-505.88-346.773-616.032-12.239-12.239-28.558-20.398-44.876-20.398zM395.729 919.203c-195.825 0-350.853-155.028-354.932-346.773 0-212.143 257.020-505.88 334.534-587.474 12.239-12.239 24.478-8.159 32.637 0 77.514 85.673 334.534 375.331 334.534 587.474-4.080 191.745-159.108 346.773-346.773 346.773zM391.649 372.526c-106.072 0-195.825 85.673-195.825 195.825s85.673 195.825 195.825 195.825c106.072 0 195.825-85.673 195.825-195.825s-89.753-195.825-195.825-195.825zM391.649 719.299c-85.673 0-155.028-69.355-155.028-155.028s69.355-155.028 155.028-155.028 155.028 69.355 155.028 155.028-69.355 155.028-155.028 155.028z" />
<glyph unicode="&#xe917;" glyph-name="print" horiz-adv-x="1126" d="M1019.853 640.666c0 12.612-10.224 22.835-22.835 22.835s-22.835-10.224-22.835-22.835v0c0-12.612 10.224-22.835 22.835-22.835s22.835 10.224 22.835 22.835v0zM837.171 846.182h-548.045v-91.341h547.994zM1111.194 754.842v-639.386h-126.208l-91.341 182.682h-661.043l-91.29-182.682h-126.208v639.386h182.682v182.682h730.726v-182.682zM837.171 206.848l137.011-274.022h-822.067l137.011 274.022h100.608l-89.856-182.682h526.49l-89.344 182.682z" />
<glyph unicode="&#xe918;" glyph-name="close" d="M102.399 960.002l-102.408-102.408 921.56-921.56 102.408 102.408zM0.052 38.399l102.408-102.408 921.56 921.56-102.408 102.408z" />
<glyph unicode="&#xe919;" glyph-name="datepicker" d="M932.575 868.575h-182.85v73.294c0 10.099-8.186 18.285-18.285 18.285s-18.285-8.186-18.285-18.285v0-164.565c0-10.099 8.186-18.285 18.285-18.285s18.285 8.186 18.285 18.285v0 54.855h182.85c30.278-0.044 54.811-24.577 54.855-54.851v-164.569h-950.86v164.411c0.044 30.278 24.577 54.811 54.851 54.855h146.284v36.57h-146.28c-50.466-0.066-91.359-40.959-91.425-91.419v-749.731c0.066-50.466 40.959-91.359 91.419-91.425h840.963c50.466 0.066 91.359 40.959 91.425 91.419v749.731c-0.065 50.399-40.849 91.25-91.215 91.425h-0.017zM932.575-27.43h-840.957c-30.278 0.044-54.811 24.577-54.855 54.851v548.555h950.783v-548.551c0-0.011 0-0.025 0-0.039 0-30.338-24.594-54.932-54.932-54.932-0.014 0-0.027 0-0.041 0h0.002zM292.522 758.865c10.099 0 18.285 8.186 18.285 18.285v54.855h365.701v36.57h-365.701v73.294c0 10.099-8.186 18.285-18.285 18.285s-18.285-8.186-18.285-18.285v0-164.565c0-0.046-0.001-0.1-0.001-0.154 0-10.099 8.186-18.285 18.285-18.285 0 0 0 0 0.001 0v0zM153.224 391.12h154.304c10.652 0 19.288-8.636 19.288-19.288s-8.636-19.288-19.288-19.288h-154.304c-10.652 0-19.288 8.636-19.288 19.288s8.636 19.288 19.288 19.288zM153.224 198.24h154.304c10.652 0 19.288-8.636 19.288-19.288s-8.636-19.288-19.288-19.288h-154.304c-10.652 0-19.288 8.636-19.288 19.288s8.636 19.288 19.288 19.288zM423.256 391.12h154.304c10.652 0 19.288-8.636 19.288-19.288s-8.636-19.288-19.288-19.288h-154.304c-10.652 0-19.288 8.636-19.288 19.288s8.636 19.288 19.288 19.288zM423.256 198.24h154.304c10.652 0 19.288-8.636 19.288-19.288s-8.636-19.288-19.288-19.288h-154.304c-10.652 0-19.288 8.636-19.288 19.288s8.636 19.288 19.288 19.288zM693.288 391.12h154.304c10.652 0 19.288-8.636 19.288-19.288s-8.636-19.288-19.288-19.288h-154.304c-10.652 0-19.288 8.636-19.288 19.288s8.636 19.288 19.288 19.288zM693.288 198.24h154.304c10.652 0 19.288-8.636 19.288-19.288s-8.636-19.288-19.288-19.288h-154.304c-10.652 0-19.288 8.636-19.288 19.288s8.636 19.288 19.288 19.288z" />
<glyph unicode="&#xe91a;" glyph-name="filepicker" horiz-adv-x="777" d="M420.906 310.843c2.32-2.32 5.525-3.755 9.065-3.755 7.080 0 12.819 5.739 12.819 12.819 0 3.54-1.435 6.745-3.755 9.065l-115.312 115.312c-2.318 2.325-5.523 3.763-9.065 3.763s-6.747-1.438-9.064-3.763v0l-115.157-115.312c-2.32-2.32-3.755-5.525-3.755-9.065 0-7.080 5.739-12.819 12.819-12.819 3.54 0 6.745 1.435 9.065 3.755l93.37 93.37v-302.17c0-7.080 5.739-12.819 12.819-12.819s12.819 5.739 12.819 12.819v302.17zM481.908 960h-481.908v-1024h777.463v728.327zM474.127 914.21l257.624-257.624h-257.624zM37.971-26.068v948.137h398.224v-303.454h303.454v-644.722z" />
<glyph unicode="&#xe91b;" glyph-name="timepicker" d="M512 960c-282.77 0-512-229.23-512-512s229.23-512 512-512c282.77 0 512 229.23 512 512v0c-0.326 282.639-229.362 511.674-511.969 512h-0.031zM512-29.88c-263.926 0-477.88 213.954-477.88 477.88s213.954 477.88 477.88 477.88c263.926 0 477.88-213.954 477.88-477.88v0c-0.279-263.813-214.066-477.6-477.853-477.88h-0.027zM529.080 513.823v326.697c-0.458 9.066-7.921 16.244-17.060 16.244s-16.602-7.178-17.058-16.203l-0.002-0.041v-326.697c-23.955-6.34-42.443-24.829-48.676-48.309l-0.107-0.474h-207.217c-0.25 0.013-0.542 0.020-0.836 0.020-9.433 0-17.080-7.647-17.080-17.080s7.647-17.080 17.080-17.080c0.294 0 0.586 0.007 0.877 0.022l-0.041-0.002h207.217c7.795-29.667 34.374-51.195 65.981-51.195 37.62 0 68.116 30.497 68.116 68.116 0 31.607-21.527 58.186-50.72 65.875l-0.475 0.106z" />
<glyph unicode="&#xe920;" glyph-name="wcag" horiz-adv-x="904" d="M833.476 604.491c-95.955-22.648-185.525-42.586-274.492-52.826 2.831-337.619 41.141-411.226 83.727-520.072 2.697-6.588 4.262-14.233 4.262-22.244 0-33.234-26.941-60.175-60.175-60.175-25.486 0-47.271 15.844-56.044 38.219l-0.141 0.409c-29.094 74.571-57.103 135.77-74.451 262.505h-32.346c-17.288-126.494-45.176-187.874-74.391-262.505-8.536-23.524-30.692-40.026-56.701-40.026-33.234 0-60.175 26.941-60.175 60.175 0 8.543 1.78 16.669 4.989 24.030l-0.151-0.388c42.466 108.725 80.776 182.272 83.607 520.072-88.968 10.24-178.537 30.118-274.492 52.826-24.406 5.297-42.419 26.71-42.419 52.331 0 29.541 23.948 53.489 53.489 53.489 4.801 0 9.454-0.632 13.88-1.819l-0.374 0.085c323.162-76.318 415.383-76.137 737.882 0 4.121 1.139 8.852 1.794 13.736 1.794 29.541 0 53.489-23.948 53.489-53.489 0-25.725-18.16-47.208-42.36-52.33l-0.349-0.062zM440.019 932.111c66.451 0 120.32-53.869 120.32-120.32s-53.869-120.32-120.32-120.32v0c-66.451 0-120.32 53.869-120.32 120.32s53.869 120.32 120.32 120.32v0z" />
<glyph unicode="&#xe921;" glyph-name="whatsapp" d="M778.803 343.398c-3.072 5.12-11.315 8.192-23.706 14.336s-73.267 35.84-84.582 39.936c-11.366 4.096-19.661 6.144-27.904-6.144-8.192-12.288-31.949-39.936-39.168-48.128-7.27-8.192-14.438-9.216-26.829-3.072s-52.275 19.098-99.584 60.928c-36.762 32.563-61.645 72.755-68.864 85.094-7.168 12.288-0.768 18.944 5.427 25.037 5.581 5.478 12.39 14.336 18.586 21.504s8.243 12.288 12.339 20.48c4.198 8.192 2.099 15.36-1.024 21.504-3.072 6.144-27.853 66.611-38.144 91.238-10.342 24.576-20.634 20.48-27.853 20.48s-15.514 1.024-23.757 1.024c-13.149-0.342-24.868-6.19-32.984-15.314l-0.040-0.046c-11.315-12.288-43.315-41.984-43.315-102.451 0-60.416 44.339-118.886 50.586-127.078 6.144-8.192 85.606-136.192 211.456-185.446 125.901-49.152 125.901-32.768 148.582-30.72s73.216 29.696 83.61 58.368c10.24 28.774 10.24 53.35 7.168 58.47zM948.429 458.803c0-232.346-190.464-421.376-424.653-421.376-0.166 0-0.362 0-0.558 0-86.752 0-167.423 26.032-234.629 70.711l1.562-0.976-163.174-51.866 53.043 156.467c-50.537 68.169-80.896 153.939-80.896 246.8 0 0.084 0 0.169 0 0.253v-0.014c0 232.346 190.464 421.376 424.653 421.376 234.138 0 424.653-189.030 424.653-421.376zM1028.813 458.803c0.051 276.838-225.997 501.197-505.037 501.197-278.938 0-505.088-224.358-505.088-501.197 0-94.669 26.47-183.245 72.499-258.765l-91.187-268.902 279.654 88.883c70.224-39.25 154.078-62.362 243.331-62.362 0.278 0 0.556 0 0.833 0.001h-0.043c278.989 0 505.088 224.358 505.088 501.146z" />
<glyph unicode="&#xe922;" glyph-name="youtube" horiz-adv-x="1472" d="M636.672 654.976l322.432-181.888c10.439-5.989 17.392-17.015 17.536-29.676v-0.404c-0.069-12.545-6.786-23.505-16.804-29.545l-0.156-0.087-318.72-188.288c-4.995-3.031-11.033-4.825-17.49-4.825-6.234 0-12.077 1.672-17.106 4.592l0.163-0.088c-10.467 5.961-17.434 17.003-17.536 29.682v0.014l-3.648 370.176v0.32c0.079 19.027 15.522 34.42 34.56 34.42 6.156 0 11.935-1.609 16.941-4.43l-0.173 0.090zM1443.712 183.040v491.328c-0.182 139.011-112.878 251.639-251.897 251.712h-894.343c-138.971-0.146-251.594-112.746-251.776-251.695v-491.345c0.182-138.966 112.805-251.566 251.762-251.712h894.414c138.971 0.146 251.594 112.746 251.776 251.695v0.017z" />
</font>
</defs>
</svg>
