<svg version="1" xmlns="http://www.w3.org/2000/svg" width="346.667" height="346.667" viewBox="0 0 260.000000 260.000000"><path d="M121.8 41.1c-12.8 6.6-13.2 24.8-.7 31.8 17 9.6 35-11 23.2-26.7-4.9-6.5-15.3-8.9-22.5-5.1z"/><path d="M15.7 65.6c-.1.1-3.3.4-7 .7-7.1.6-8.7 1.1-7.1 2.6.9.9 43.1 37.2 67.4 57.9 7.4 6.4 13.7 11.8 14 12.1.5.6 14.3 12.4 14.8 12.6.1.1-1.1 3.1-2.7 6.6-4.1 9-8.8 24.8-10.6 35.4-1.5 8.9-2.8 26.5-2 26.5.4 0 2.7-1.9 15.5-13 18.5-16 31.6-27 32-27 .3 0 11 9 23.8 20 12.9 11 23.5 20 23.7 20 .7 0-.8-20-2-26-.1-.8-.5-3.1-.8-5-1.1-6.4-5.8-21.4-9.2-29.4-1.9-4.4-3.3-8-3.2-8.1.5-.4 43.3-37 43.7-37.5.3-.3 8.4-7.3 18-15.5 9.6-8.3 17.7-15.2 18-15.5.3-.3 3.7-3.2 7.5-6.5 3.9-3.2 7.8-6.7 8.8-7.7 1.7-1.7 1.7-1.8-1-1.9-1.5 0-3.7-.3-4.8-.5-4.8-1.2-30.6-.5-39.5 1-12.3 2-13.2 2.2-19.8 4.1-20 5.9-42.2 17.9-57 30.9l-6.3 5.6-7.2-6.2c-25.8-22.2-60-35.2-95.4-36.1-6.2-.2-11.4-.3-11.6-.1z"/></svg>